<svg width="18" height="19" viewBox="0 0 18 19" fill="none" xmlns="http://www.w3.org/2000/svg">
<path d="M16.4775 13.7636C16.4775 14.0336 16.4175 14.3111 16.29 14.5811C16.1625 14.8511 15.9975 15.1061 15.78 15.3461C15.4125 15.7511 15.0075 16.0436 14.55 16.2311C14.1 16.4186 13.6125 16.5161 13.0875 16.5161C12.3225 16.5161 11.505 16.3361 10.6425 15.9686C9.78 15.6011 8.9175 15.1061 8.0625 14.4836C7.2 13.8536 6.3825 13.1561 5.6025 12.3836C4.83 11.6036 4.1325 10.7861 3.51 9.93111C2.895 9.07611 2.4 8.22111 2.04 7.37361C1.68 6.51861 1.5 5.70111 1.5 4.92111C1.5 4.41111 1.59 3.92361 1.77 3.47361C1.95 3.01611 2.235 2.59611 2.6325 2.22111C3.1125 1.74861 3.6375 1.51611 4.1925 1.51611C4.4025 1.51611 4.6125 1.56111 4.8 1.65111C4.995 1.74111 5.1675 1.87611 5.3025 2.07111L7.0425 4.52361C7.1775 4.71111 7.275 4.88361 7.3425 5.04861C7.41 5.20611 7.4475 5.36361 7.4475 5.50611C7.4475 5.68611 7.395 5.86611 7.29 6.03861C7.1925 6.21111 7.05 6.39111 6.87 6.57111L6.3 7.16361C6.2175 7.24611 6.18 7.34361 6.18 7.46361C6.18 7.52361 6.1875 7.57611 6.2025 7.63611C6.225 7.69611 6.2475 7.74111 6.2625 7.78611C6.3975 8.03361 6.63 8.35611 6.96 8.74611C7.2975 9.13611 7.6575 9.53361 8.0475 9.93111C8.4525 10.3286 8.8425 10.6961 9.24 11.0336C9.63 11.3636 9.9525 11.5886 10.2075 11.7236C10.245 11.7386 10.29 11.7611 10.3425 11.7836C10.4025 11.8061 10.4625 11.8136 10.53 11.8136C10.6575 11.8136 10.755 11.7686 10.8375 11.6861L11.4075 11.1236C11.595 10.9361 11.775 10.7936 11.9475 10.7036C12.12 10.5986 12.2925 10.5461 12.48 10.5461C12.6225 10.5461 12.7725 10.5761 12.9375 10.6436C13.1025 10.7111 13.275 10.8086 13.4625 10.9361L15.945 12.6986C16.14 12.8336 16.275 12.9911 16.3575 13.1786C16.4325 13.3661 16.4775 13.5536 16.4775 13.7636Z" stroke="#212121" stroke-width="1.2" stroke-miterlimit="10"/>
<path d="M13.875 6.76611C13.875 6.31611 13.5225 5.62611 12.9975 5.06361C12.5175 4.54611 11.88 4.14111 11.25 4.14111" stroke="#212121" stroke-width="1.2" stroke-linecap="round" stroke-linejoin="round"/>
<path d="M16.5 6.76611C16.5 3.86361 14.1525 1.51611 11.25 1.51611" stroke="#212121" stroke-width="1.2" stroke-linecap="round" stroke-linejoin="round"/>
</svg>
