<svg width="24" height="24" viewBox="0 0 24 24" fill="none" xmlns="http://www.w3.org/2000/svg">
<path opacity="0.4" d="M16.1901 8.86001C15.8001 8.86001 15.4901 8.55001 15.4901 8.16001V6.88001C15.4901 5.90001 15.0701 4.96001 14.3501 4.30001C13.6101 3.63001 12.6601 3.32001 11.6601 3.41001C9.98011 3.57001 8.51011 5.28001 8.51011 7.06001V7.96001C8.51011 8.35001 8.20011 8.66001 7.81011 8.66001C7.42011 8.66001 7.11011 8.35001 7.11011 7.96001V7.06001C7.11011 4.56001 9.13011 2.25001 11.5201 2.02001C12.9101 1.89001 14.2501 2.33001 15.2801 3.27001C16.3001 4.19001 16.8801 5.51001 16.8801 6.88001V8.16001C16.8801 8.55001 16.5701 8.86001 16.1901 8.86001Z" fill="white"/>
<path d="M19.96 8.96C19.12 8.03 17.74 7.58 15.72 7.58H8.27999C6.25999 7.58 4.87999 8.03 4.03999 8.96C3.06999 10.04 3.09999 11.48 3.20999 12.48L3.90999 18.05C4.11999 20 4.90999 22 9.20999 22H14.79C19.09 22 19.88 20 20.09 18.06L20.79 12.47C20.9 11.48 20.93 10.04 19.96 8.96ZM12 18.58C9.90999 18.58 8.20999 16.88 8.20999 14.79C8.20999 12.7 9.90999 11 12 11C14.09 11 15.79 12.7 15.79 14.79C15.79 16.88 14.09 18.58 12 18.58Z" fill="white"/>
<path opacity="0.4" d="M12 18.58C14.0931 18.58 15.79 16.8832 15.79 14.79C15.79 12.6968 14.0931 11 12 11C9.9068 11 8.20996 12.6968 8.20996 14.79C8.20996 16.8832 9.9068 18.58 12 18.58Z" fill="white"/>
<path d="M11.4299 16.64C11.2399 16.64 11.0499 16.57 10.8999 16.42L9.90988 15.43C9.61988 15.14 9.61988 14.66 9.90988 14.37C10.1999 14.08 10.6799 14.08 10.9699 14.37L11.4499 14.85L13.0499 13.37C13.3499 13.09 13.8299 13.11 14.1099 13.41C14.3899 13.71 14.3699 14.19 14.0699 14.47L11.9399 16.44C11.7899 16.57 11.6099 16.64 11.4299 16.64Z" fill="white"/>
</svg>
