<svg width="30" height="31" viewBox="0 0 30 31" fill="none" xmlns="http://www.w3.org/2000/svg">
<path d="M30 15.5C30 23.7843 23.2843 30.5 15 30.5C6.71573 30.5 0 23.7843 0 15.5C0 7.21573 6.71573 0.5 15 0.5C23.2843 0.5 30 7.21573 30 15.5ZM2.17852 15.5C2.17852 22.5811 7.91889 28.3215 15 28.3215C22.0811 28.3215 27.8215 22.5811 27.8215 15.5C27.8215 8.41889 22.0811 2.67852 15 2.67852C7.91889 2.67852 2.17852 8.41889 2.17852 15.5Z" fill="#FF6F00"/>
<path opacity="0.4" d="M19.1901 11.86C18.8001 11.86 18.4901 11.55 18.4901 11.16V9.88C18.4901 8.9 18.0701 7.96 17.3501 7.3C16.6101 6.63 15.6601 6.32 14.6601 6.41C12.9801 6.57 11.5101 8.28 11.5101 10.06V10.96C11.5101 11.35 11.2001 11.66 10.8101 11.66C10.4201 11.66 10.1101 11.35 10.1101 10.96V10.06C10.1101 7.56 12.1301 5.25 14.5201 5.02C15.9101 4.89 17.2501 5.33 18.2801 6.27C19.3001 7.19 19.8801 8.51 19.8801 9.88V11.16C19.8801 11.55 19.5701 11.86 19.1901 11.86Z" fill="#FF6F00"/>
<path d="M22.96 11.96C22.12 11.03 20.74 10.58 18.72 10.58H11.28C9.25999 10.58 7.87999 11.03 7.03999 11.96C6.06999 13.04 6.09999 14.48 6.20999 15.48L6.90999 21.05C7.11999 23 7.90999 25 12.21 25H17.79C22.09 25 22.88 23 23.09 21.06L23.79 15.47C23.9 14.48 23.93 13.04 22.96 11.96ZM15 21.58C12.91 21.58 11.21 19.88 11.21 17.79C11.21 15.7 12.91 14 15 14C17.09 14 18.79 15.7 18.79 17.79C18.79 19.88 17.09 21.58 15 21.58Z" fill="#FF6F00"/>
<path opacity="0.4" d="M15 21.58C17.0931 21.58 18.79 19.8832 18.79 17.79C18.79 15.6968 17.0931 14 15 14C12.9068 14 11.21 15.6968 11.21 17.79C11.21 19.8832 12.9068 21.58 15 21.58Z" fill="#FF6F00"/>
<path d="M14.4299 19.64C14.2399 19.64 14.0499 19.57 13.8999 19.42L12.9099 18.43C12.6199 18.14 12.6199 17.66 12.9099 17.37C13.1999 17.08 13.6799 17.08 13.9699 17.37L14.4499 17.85L16.0499 16.37C16.3499 16.09 16.8299 16.11 17.1099 16.41C17.3899 16.71 17.3699 17.19 17.0699 17.47L14.9399 19.44C14.7899 19.57 14.6099 19.64 14.4299 19.64Z" fill="#FF6F00"/>
</svg>
