<svg width="24" height="25" viewBox="0 0 24 25" fill="none" xmlns="http://www.w3.org/2000/svg">
<path d="M8 8.32593V5.52593C8 4.40582 8 3.84577 8.21799 3.41795C8.40973 3.04162 8.71569 2.73566 9.09202 2.54391C9.51984 2.32593 10.0799 2.32593 11.2 2.32593H18.8C19.9201 2.32593 20.4802 2.32593 20.908 2.54391C21.2843 2.73566 21.5903 3.04162 21.782 3.41795C22 3.84577 22 4.40582 22 5.52593V13.1259C22 14.246 22 14.8061 21.782 15.2339C21.5903 15.6102 21.2843 15.9162 20.908 16.1079C20.4802 16.3259 19.9201 16.3259 18.8 16.3259H16M5.2 22.3259H12.8C13.9201 22.3259 14.4802 22.3259 14.908 22.1079C15.2843 21.9162 15.5903 21.6102 15.782 21.2339C16 20.8061 16 20.246 16 19.1259V11.5259C16 10.4058 16 9.84577 15.782 9.41795C15.5903 9.04162 15.2843 8.73566 14.908 8.54391C14.4802 8.32593 13.9201 8.32593 12.8 8.32593H5.2C4.0799 8.32593 3.51984 8.32593 3.09202 8.54391C2.71569 8.73566 2.40973 9.04162 2.21799 9.41795C2 9.84577 2 10.4058 2 11.5259V19.1259C2 20.246 2 20.8061 2.21799 21.2339C2.40973 21.6102 2.71569 21.9162 3.09202 22.1079C3.51984 22.3259 4.07989 22.3259 5.2 22.3259Z" stroke="#919191" stroke-width="1.6" stroke-linecap="round" stroke-linejoin="round"/>
</svg>
