<svg width="104" height="32" viewBox="0 0 104 32" fill="none" xmlns="http://www.w3.org/2000/svg">
<rect x="0.47876" y="0.678284" width="30.6434" height="30.6434" rx="7.4813" fill="#00CF63"/>
<ellipse cx="8.2393" cy="16.0001" rx="3.02446" ry="2.39436" fill="#FFFEFE"/>
<path fill-rule="evenodd" clip-rule="evenodd" d="M14.7967 5.15964C14.6656 5.18235 14.2365 5.24819 13.8433 5.30601C10.7541 5.76 7.69863 7.92375 6.26902 10.6698C5.89366 11.3908 5.8642 11.6028 6.07042 12.0969C6.25929 12.5491 6.73828 12.8336 7.31117 12.8336C7.71293 12.8336 7.80303 12.7922 8.11031 12.4664C8.3007 12.2645 8.60674 11.8494 8.79027 11.5438C9.7716 9.91041 11.5877 8.59329 13.6049 8.05199C14.6295 7.777 16.3496 7.75238 17.3942 7.9976C19.8471 8.57353 21.8225 10.1188 22.9058 12.3088C23.4651 13.4398 23.7513 14.4365 23.5528 14.5624C23.4825 14.6071 19.5258 14.6442 14.7602 14.645C6.20685 14.6465 6.09159 14.649 5.78097 14.8411C4.91091 15.3793 5.07584 16.7494 6.05546 17.1209C6.43071 17.2633 25.1647 17.2633 25.54 17.1209C26.2962 16.8342 26.4929 16.2834 26.3358 14.8923C25.7898 10.056 22.4215 6.3138 17.7522 5.35572C17.0183 5.20506 15.2221 5.08589 14.7967 5.15964ZM23.9016 18.8947C23.467 19.0455 23.4479 19.0679 22.7763 20.2181C21.6469 22.1523 19.7577 23.5253 17.5008 24.0524C16.6317 24.2554 14.8595 24.256 14.0003 24.0538C12.6411 23.7339 11.1681 22.9565 10.1569 22.0253C9.63736 21.547 8.85405 20.4925 8.50692 19.8043C8.19878 19.1933 7.88893 18.9418 7.35627 18.8704C6.64408 18.7747 5.93008 19.4234 5.93008 20.166C5.93008 20.3258 6.09721 20.7797 6.30143 21.1747C7.21536 22.9423 8.62895 24.3997 10.4595 25.4616C15.6729 28.4859 22.6071 26.4325 25.3362 21.0561C25.6245 20.4883 25.6797 20.2915 25.6381 19.9809C25.5202 19.1016 24.7298 18.6072 23.9016 18.8947Z" fill="white"/>
<path d="M38.7304 23.1594C38.3584 23.1594 38.0727 23.0531 37.8734 22.8406C37.6741 22.628 37.5745 22.3357 37.5745 21.9636V9.98559C37.5745 9.60027 37.6808 9.30796 37.8934 9.10866C38.106 8.89607 38.3983 8.78978 38.7703 8.78978C39.1025 8.78978 39.3616 8.85621 39.5476 8.98908C39.7469 9.10866 39.9262 9.32125 40.0857 9.62685L45.0084 18.7349H44.3707L49.2934 9.62685C49.4529 9.32125 49.6256 9.10866 49.8116 8.98908C49.9976 8.85621 50.2567 8.78978 50.5889 8.78978C50.9609 8.78978 51.2466 8.89607 51.4459 9.10866C51.6452 9.30796 51.7448 9.60027 51.7448 9.98559V21.9636C51.7448 22.3357 51.6452 22.628 51.4459 22.8406C51.2599 23.0531 50.9742 23.1594 50.5889 23.1594C50.2169 23.1594 49.9312 23.0531 49.7319 22.8406C49.5326 22.628 49.4329 22.3357 49.4329 21.9636V12.736H49.8714L45.6861 20.3692C45.5532 20.5951 45.4137 20.7612 45.2675 20.8675C45.1214 20.9738 44.9221 21.0269 44.6696 21.0269C44.4172 21.0269 44.2112 20.9738 44.0518 20.8675C43.8924 20.7479 43.7528 20.5818 43.6333 20.3692L39.4081 12.716H39.8864V21.9636C39.8864 22.3357 39.7867 22.628 39.5874 22.8406C39.4014 23.0531 39.1158 23.1594 38.7304 23.1594ZM57.0695 26.7469C56.7772 26.7469 56.538 26.6672 56.352 26.5077C56.166 26.3616 56.053 26.1623 56.0132 25.9098C55.9866 25.6574 56.0331 25.3916 56.1527 25.1126L57.5079 22.1031V23.1395L53.8806 14.7489C53.7611 14.4566 53.7212 14.1842 53.7611 13.9318C53.8009 13.6793 53.9205 13.48 54.1198 13.3339C54.3324 13.1744 54.6181 13.0947 54.9768 13.0947C55.2824 13.0947 55.5282 13.1678 55.7142 13.3139C55.9002 13.4468 56.0663 13.7059 56.2125 14.0912L58.903 20.8077H58.3051L61.0555 14.0713C61.2017 13.6992 61.3744 13.4468 61.5737 13.3139C61.773 13.1678 62.0387 13.0947 62.3709 13.0947C62.6632 13.0947 62.8957 13.1744 63.0685 13.3339C63.2412 13.48 63.3475 13.6793 63.3873 13.9318C63.4272 14.1709 63.3807 14.4367 63.2478 14.729L58.4048 25.7902C58.2321 26.1623 58.0461 26.4147 57.8467 26.5476C57.6474 26.6804 57.3884 26.7469 57.0695 26.7469ZM66.6831 23C66.2447 23 65.9059 22.8871 65.6667 22.6612C65.4408 22.422 65.3279 22.0832 65.3279 21.6447V10.3045C65.3279 9.86601 65.4408 9.53384 65.6667 9.30796C65.9059 9.0688 66.2447 8.94922 66.6831 8.94922H73.7982C74.1304 8.94922 74.3828 9.03559 74.5556 9.20831C74.7416 9.38104 74.8346 9.62685 74.8346 9.94573C74.8346 10.2779 74.7416 10.537 74.5556 10.723C74.3828 10.8957 74.1304 10.9821 73.7982 10.9821H67.7793V14.8486H73.3597C73.7052 14.8486 73.9643 14.9349 74.137 15.1076C74.3098 15.2804 74.3961 15.5328 74.3961 15.865C74.3961 16.1972 74.3098 16.4496 74.137 16.6223C73.9643 16.7951 73.7052 16.8814 73.3597 16.8814H67.7793V20.9671H73.7982C74.1304 20.9671 74.3828 21.0535 74.5556 21.2262C74.7416 21.3989 74.8346 21.6514 74.8346 21.9836C74.8346 22.3157 74.7416 22.5682 74.5556 22.7409C74.3828 22.9136 74.1304 23 73.7982 23H66.6831ZM80.0921 23.1993C79.3879 23.1993 78.7568 23.0664 78.1987 22.8007C77.654 22.5217 77.2222 22.1496 76.9033 21.6846C76.5977 21.2196 76.4449 20.6947 76.4449 20.1101C76.4449 19.3926 76.6309 18.8279 77.0029 18.4161C77.375 17.9909 77.9795 17.6853 78.8166 17.4993C79.6536 17.3133 80.7764 17.2202 82.1848 17.2202H83.1813V18.6552H82.2047C81.3809 18.6552 80.7232 18.6951 80.2316 18.7748C79.74 18.8545 79.3879 18.994 79.1753 19.1933C78.976 19.3794 78.8764 19.6451 78.8764 19.9905C78.8764 20.429 79.0292 20.7877 79.3348 21.0668C79.6404 21.3458 80.0655 21.4853 80.6103 21.4853C81.0488 21.4853 81.4341 21.3857 81.7662 21.1864C82.1117 20.9738 82.3841 20.6881 82.5834 20.3294C82.7827 19.9706 82.8823 19.5587 82.8823 19.0937V16.8017C82.8823 16.1374 82.7362 15.659 82.4439 15.3667C82.1516 15.0744 81.6599 14.9283 80.969 14.9283C80.5837 14.9283 80.1652 14.9748 79.7134 15.0678C79.275 15.1608 78.8099 15.3202 78.3183 15.5461C78.0659 15.6657 77.84 15.6989 77.6407 15.6458C77.4547 15.5926 77.3085 15.4863 77.2022 15.3269C77.0959 15.1542 77.0428 14.9681 77.0428 14.7688C77.0428 14.5695 77.0959 14.3769 77.2022 14.1909C77.3085 13.9916 77.4879 13.8454 77.7403 13.7524C78.3515 13.4999 78.9362 13.3206 79.4942 13.2143C80.0655 13.108 80.5837 13.0548 81.0488 13.0548C82.0054 13.0548 82.7893 13.201 83.4005 13.4933C84.025 13.7856 84.49 14.2307 84.7956 14.8286C85.1012 15.4132 85.254 16.1706 85.254 17.1007V21.8839C85.254 22.2958 85.1544 22.6147 84.9551 22.8406C84.7558 23.0531 84.4701 23.1594 84.0981 23.1594C83.726 23.1594 83.4337 23.0531 83.2211 22.8406C83.0218 22.6147 82.9222 22.2958 82.9222 21.8839V20.9273H83.0816C82.9886 21.3923 82.8026 21.7975 82.5236 22.143C82.2579 22.4752 81.919 22.7343 81.5071 22.9203C81.0953 23.1063 80.6236 23.1993 80.0921 23.1993ZM92.247 23.1993C91.3834 23.1993 90.6592 23.0531 90.0746 22.7608C89.5033 22.4685 89.0781 22.0434 88.7991 21.4853C88.5201 20.914 88.3806 20.2098 88.3806 19.3727V15.1276H87.3442C87.0253 15.1276 86.7795 15.0479 86.6068 14.8884C86.4341 14.7157 86.3477 14.4832 86.3477 14.1909C86.3477 13.8853 86.4341 13.6527 86.6068 13.4933C86.7795 13.3339 87.0253 13.2541 87.3442 13.2541H88.3806V11.4405C88.3806 11.0286 88.4869 10.7164 88.6994 10.5038C88.9253 10.2912 89.2376 10.1849 89.6362 10.1849C90.0348 10.1849 90.3404 10.2912 90.553 10.5038C90.7655 10.7164 90.8718 11.0286 90.8718 11.4405V13.2541H92.9844C93.3033 13.2541 93.5491 13.3339 93.7219 13.4933C93.8946 13.6527 93.9809 13.8853 93.9809 14.1909C93.9809 14.4832 93.8946 14.7157 93.7219 14.8884C93.5491 15.0479 93.3033 15.1276 92.9844 15.1276H90.8718V19.2332C90.8718 19.871 91.0113 20.3493 91.2904 20.6682C91.5694 20.9871 92.0211 21.1465 92.6456 21.1465C92.8715 21.1465 93.0708 21.1266 93.2435 21.0867C93.4163 21.0468 93.5691 21.0203 93.7019 21.007C93.8614 20.9937 93.9942 21.0468 94.1005 21.1664C94.2068 21.2727 94.26 21.4986 94.26 21.844C94.26 22.1098 94.2135 22.3489 94.1205 22.5615C94.0407 22.7608 93.8879 22.9003 93.6621 22.9801C93.4893 23.0332 93.2635 23.0797 92.9844 23.1196C92.7054 23.1727 92.4596 23.1993 92.247 23.1993ZM98.9991 23.1993C98.4278 23.1993 97.8233 23.1395 97.1855 23.0199C96.5477 22.9003 95.9764 22.6944 95.4715 22.4021C95.2589 22.2692 95.1061 22.1164 95.0131 21.9437C94.9334 21.7577 94.9002 21.5783 94.9135 21.4056C94.94 21.2196 95.0065 21.0601 95.1128 20.9273C95.2323 20.7944 95.3785 20.708 95.5512 20.6682C95.7372 20.6283 95.9365 20.6615 96.1491 20.7678C96.6806 21.0203 97.1789 21.1996 97.6439 21.3059C98.1089 21.3989 98.5673 21.4454 99.0191 21.4454C99.6568 21.4454 100.129 21.3392 100.434 21.1266C100.753 20.9007 100.912 20.6084 100.912 20.2496C100.912 19.944 100.806 19.7115 100.594 19.5521C100.394 19.3794 100.089 19.2531 99.6768 19.1734L97.6838 18.7947C96.86 18.6353 96.2289 18.3363 95.7904 17.8979C95.3652 17.4461 95.1526 16.8681 95.1526 16.1639C95.1526 15.5262 95.3254 14.9748 95.6708 14.5097C96.0296 14.0447 96.5212 13.686 97.1456 13.4335C97.7701 13.1811 98.4876 13.0548 99.2981 13.0548C99.8827 13.0548 100.427 13.1213 100.932 13.2541C101.451 13.3737 101.949 13.5664 102.427 13.8321C102.626 13.9384 102.759 14.0779 102.826 14.2507C102.905 14.4234 102.925 14.6027 102.886 14.7888C102.846 14.9615 102.766 15.1209 102.646 15.2671C102.527 15.4 102.374 15.4863 102.188 15.5262C102.015 15.5528 101.816 15.5129 101.59 15.4066C101.178 15.194 100.78 15.0412 100.394 14.9482C100.022 14.8552 99.6635 14.8087 99.318 14.8087C98.667 14.8087 98.182 14.9216 97.8631 15.1475C97.5575 15.3734 97.4047 15.6723 97.4047 16.0444C97.4047 16.3234 97.4977 16.5559 97.6838 16.7419C97.8698 16.9279 98.1554 17.0542 98.5408 17.1206L100.534 17.4993C101.397 17.6587 102.048 17.951 102.487 18.3762C102.939 18.8014 103.165 19.3727 103.165 20.0902C103.165 21.0601 102.786 21.8241 102.029 22.3822C101.271 22.9269 100.261 23.1993 98.9991 23.1993Z" fill="#00CF63"/>
</svg>
