<svg width="113" height="33" viewBox="0 0 113 33" fill="none" xmlns="http://www.w3.org/2000/svg">
<rect width="33.0006" height="33.0006" rx="8.05679" fill="#00CF63"/>
<ellipse cx="8.3577" cy="16.5007" rx="3.25711" ry="2.57855" fill="#FFFEFE"/>
<path fill-rule="evenodd" clip-rule="evenodd" d="M15.4195 4.82617C15.2783 4.85062 14.8163 4.92152 14.3927 4.98379C11.0659 5.47271 7.77544 7.8029 6.23585 10.7602C5.83162 11.5366 5.7999 11.765 6.02198 12.297C6.22538 12.7841 6.74121 13.0904 7.35817 13.0904C7.79084 13.0904 7.88786 13.0458 8.21878 12.695C8.42382 12.4776 8.7534 12.0305 8.95105 11.7015C10.0079 9.94238 11.9637 8.52394 14.1361 7.941C15.2395 7.64486 17.0919 7.61835 18.2168 7.88243C20.8584 8.50267 22.9858 10.1668 24.1523 12.5252C24.7547 13.7433 25.063 14.8166 24.8492 14.9522C24.7734 15.0003 20.5124 15.0403 15.3802 15.0412C6.16891 15.0428 6.04477 15.0454 5.71027 15.2524C4.77327 15.8319 4.95089 17.3075 6.00586 17.7075C6.40998 17.8608 26.5851 17.8608 26.9892 17.7075C27.8036 17.3988 28.0154 16.8056 27.8462 15.3075C27.2582 10.0992 23.6309 6.0691 18.6023 5.03733C17.8121 4.87508 15.8776 4.74673 15.4195 4.82617ZM25.2248 19.6178C24.7568 19.7802 24.7363 19.8043 24.0129 21.043C22.7966 23.1259 20.7622 24.6046 18.3316 25.1722C17.3957 25.3908 15.4871 25.3915 14.5618 25.1738C13.0981 24.8292 11.5118 23.992 10.4228 22.9892C9.8633 22.4741 9.01973 21.3385 8.6459 20.5973C8.31406 19.9394 7.98037 19.6685 7.40674 19.5916C6.63977 19.4886 5.87085 20.1871 5.87085 20.9869C5.87085 21.159 6.05083 21.6478 6.27076 22.0732C7.25499 23.9768 8.77732 25.5463 10.7487 26.6898C16.3631 29.9468 23.8307 27.7354 26.7698 21.9455C27.0802 21.334 27.1397 21.122 27.0949 20.7875C26.968 19.8406 26.1167 19.3082 25.2248 19.6178Z" fill="white"/>
<path d="M41.1941 24.172C40.7935 24.172 40.4858 24.0575 40.2712 23.8285C40.0566 23.5996 39.9493 23.2848 39.9493 22.8842V9.98471C39.9493 9.56976 40.0637 9.25496 40.2927 9.04033C40.5216 8.81139 40.8364 8.69692 41.2371 8.69692C41.5948 8.69692 41.8738 8.76846 42.0741 8.91155C42.2888 9.04033 42.4819 9.26927 42.6536 9.59838L47.9551 19.4071H47.2682L52.5697 9.59838C52.7414 9.26927 52.9274 9.04033 53.1277 8.91155C53.328 8.76846 53.6071 8.69692 53.9648 8.69692C54.3654 8.69692 54.6731 8.81139 54.8877 9.04033C55.1023 9.25496 55.2097 9.56976 55.2097 9.98471V22.8842C55.2097 23.2848 55.1023 23.5996 54.8877 23.8285C54.6874 24.0575 54.3797 24.172 53.9648 24.172C53.5641 24.172 53.2565 24.0575 53.0419 23.8285C52.8272 23.5996 52.7199 23.2848 52.7199 22.8842V12.9466H53.1921L48.6848 21.1671C48.5417 21.4103 48.3915 21.5892 48.2341 21.7037C48.0767 21.8181 47.8621 21.8754 47.5902 21.8754C47.3183 21.8754 47.0965 21.8181 46.9248 21.7037C46.7531 21.5749 46.6029 21.396 46.4741 21.1671L41.9239 12.9252H42.439V22.8842C42.439 23.2848 42.3317 23.5996 42.1171 23.8285C41.9167 24.0575 41.6091 24.172 41.1941 24.172ZM60.9439 28.0353C60.6291 28.0353 60.3715 27.9495 60.1712 27.7778C59.9709 27.6204 59.8493 27.4058 59.8063 27.1339C59.7777 26.862 59.8278 26.5758 59.9566 26.2754L61.4161 23.0344V24.1505L57.5098 15.1144C57.381 14.7996 57.338 14.5063 57.381 14.2344C57.4239 13.9626 57.5527 13.7479 57.7673 13.5905C57.9963 13.4188 58.3039 13.333 58.6902 13.333C59.0193 13.333 59.2841 13.4117 59.4844 13.5691C59.6847 13.7122 59.8636 13.9912 60.021 14.4062L62.9185 21.6393H62.2746L65.2365 14.3847C65.3939 13.984 65.58 13.7122 65.7946 13.5691C66.0092 13.4117 66.2954 13.333 66.6531 13.333C66.9679 13.333 67.2183 13.4188 67.4043 13.5905C67.5903 13.7479 67.7048 13.9626 67.7477 14.2344C67.7907 14.492 67.7406 14.7782 67.5975 15.093L62.3819 27.0051C62.1959 27.4058 61.9956 27.6776 61.781 27.8207C61.5663 27.9638 61.2873 28.0353 60.9439 28.0353ZM71.2971 24.0002C70.8249 24.0002 70.46 23.8786 70.2024 23.6354C69.9592 23.3778 69.8376 23.0129 69.8376 22.5407V10.3281C69.8376 9.85593 69.9592 9.49821 70.2024 9.25496C70.46 8.9974 70.8249 8.86862 71.2971 8.86862H78.9595C79.3172 8.86862 79.5891 8.96163 79.7751 9.14765C79.9754 9.33366 80.0756 9.59838 80.0756 9.94179C80.0756 10.2995 79.9754 10.5785 79.7751 10.7789C79.5891 10.9649 79.3172 11.0579 78.9595 11.0579H72.4775V15.2218H78.4873C78.8593 15.2218 79.1383 15.3148 79.3243 15.5008C79.5104 15.6868 79.6034 15.9587 79.6034 16.3164C79.6034 16.6741 79.5104 16.946 79.3243 17.132C79.1383 17.318 78.8593 17.411 78.4873 17.411H72.4775V21.811H78.9595C79.3172 21.811 79.5891 21.904 79.7751 22.09C79.9754 22.276 80.0756 22.5479 80.0756 22.9056C80.0756 23.2633 79.9754 23.5352 79.7751 23.7212C79.5891 23.9072 79.3172 24.0002 78.9595 24.0002H71.2971ZM85.7375 24.2149C84.9791 24.2149 84.2995 24.0718 83.6985 23.7856C83.1118 23.4851 82.6468 23.0845 82.3034 22.5837C81.9743 22.0829 81.8097 21.5177 81.8097 20.8881C81.8097 20.1154 82.01 19.5073 82.4107 19.0637C82.8113 18.6058 83.4624 18.2767 84.3639 18.0764C85.2653 17.8761 86.4744 17.7759 87.9912 17.7759H89.0643V19.3212H88.0126C87.1255 19.3212 86.4172 19.3642 85.8877 19.45C85.3583 19.5359 84.9791 19.6861 84.7502 19.9008C84.5356 20.1011 84.4282 20.3873 84.4282 20.7593C84.4282 21.2315 84.5928 21.6178 84.9219 21.9183C85.251 22.2188 85.7089 22.369 86.2956 22.369C86.7677 22.369 87.1827 22.2617 87.5404 22.0471C87.9125 21.8181 88.2058 21.5105 88.4204 21.1242C88.6351 20.7378 88.7424 20.2942 88.7424 19.7934V17.3252C88.7424 16.6097 88.585 16.0946 88.2702 15.7798C87.9554 15.465 87.426 15.3076 86.6819 15.3076C86.2669 15.3076 85.8162 15.3577 85.3297 15.4579C84.8575 15.558 84.3567 15.7297 83.8273 15.973C83.5554 16.1018 83.3122 16.1375 83.0975 16.0803C82.8972 16.0231 82.7398 15.9086 82.6253 15.7369C82.5109 15.5509 82.4536 15.3505 82.4536 15.1359C82.4536 14.9213 82.5109 14.7138 82.6253 14.5135C82.7398 14.2988 82.933 14.1414 83.2048 14.0413C83.863 13.7694 84.4926 13.5762 85.0936 13.4618C85.7089 13.3473 86.2669 13.2901 86.7677 13.2901C87.798 13.2901 88.6422 13.4475 89.3004 13.7623C89.9729 14.077 90.4737 14.5564 90.8028 15.2003C91.1319 15.8299 91.2965 16.6455 91.2965 17.6471V22.7983C91.2965 23.2419 91.1892 23.5853 90.9746 23.8285C90.7599 24.0575 90.4523 24.172 90.0516 24.172C89.651 24.172 89.3362 24.0575 89.1072 23.8285C88.8926 23.5853 88.7853 23.2419 88.7853 22.7983V21.7681H88.957C88.8568 22.2689 88.6565 22.7053 88.356 23.0773C88.0699 23.435 87.705 23.7141 87.2614 23.9144C86.8178 24.1147 86.3099 24.2149 85.7375 24.2149ZM98.8274 24.2149C97.8974 24.2149 97.1175 24.0575 96.4879 23.7427C95.8727 23.4279 95.4148 22.97 95.1143 22.369C94.8138 21.7538 94.6636 20.9954 94.6636 20.0939V15.5222H93.5475C93.204 15.5222 92.9393 15.4364 92.7533 15.2647C92.5673 15.0787 92.4743 14.8283 92.4743 14.5135C92.4743 14.1844 92.5673 13.934 92.7533 13.7623C92.9393 13.5905 93.204 13.5047 93.5475 13.5047H94.6636V11.5515C94.6636 11.108 94.778 10.7717 95.007 10.5428C95.2502 10.3138 95.5865 10.1993 96.0157 10.1993C96.445 10.1993 96.7741 10.3138 97.0031 10.5428C97.232 10.7717 97.3465 11.108 97.3465 11.5515V13.5047H99.6216C99.965 13.5047 100.23 13.5905 100.416 13.7623C100.602 13.934 100.695 14.1844 100.695 14.5135C100.695 14.8283 100.602 15.0787 100.416 15.2647C100.23 15.4364 99.965 15.5222 99.6216 15.5222H97.3465V19.9437C97.3465 20.6305 97.4967 21.1456 97.7972 21.489C98.0977 21.8325 98.5842 22.0042 99.2567 22.0042C99.4999 22.0042 99.7146 21.9827 99.9006 21.9398C100.087 21.8968 100.251 21.8682 100.394 21.8539C100.566 21.8396 100.709 21.8968 100.824 22.0256C100.938 22.1401 100.995 22.3833 100.995 22.7554C100.995 23.0416 100.945 23.2991 100.845 23.5281C100.759 23.7427 100.595 23.8929 100.351 23.9788C100.165 24.036 99.9221 24.0861 99.6216 24.129C99.3211 24.1863 99.0564 24.2149 98.8274 24.2149ZM106.099 24.2149C105.484 24.2149 104.833 24.1505 104.146 24.0217C103.459 23.8929 102.844 23.6711 102.3 23.3563C102.071 23.2133 101.906 23.0487 101.806 22.8627C101.72 22.6624 101.685 22.4692 101.699 22.2832C101.728 22.0829 101.799 21.9112 101.914 21.7681C102.042 21.625 102.2 21.532 102.386 21.489C102.586 21.4461 102.801 21.4819 103.03 21.5964C103.602 21.8682 104.139 22.0614 104.639 22.1759C105.14 22.276 105.634 22.3261 106.12 22.3261C106.807 22.3261 107.315 22.2116 107.644 21.9827C107.988 21.7394 108.159 21.4246 108.159 21.0383C108.159 20.7092 108.045 20.4588 107.816 20.2871C107.601 20.1011 107.272 19.9651 106.829 19.8793L104.682 19.4715C103.795 19.2998 103.116 18.9778 102.643 18.5056C102.185 18.0191 101.957 17.3967 101.957 16.6383C101.957 15.9515 102.143 15.3577 102.515 14.8569C102.901 14.3561 103.43 13.9697 104.103 13.6979C104.775 13.426 105.548 13.2901 106.421 13.2901C107.05 13.2901 107.637 13.3616 108.181 13.5047C108.739 13.6335 109.276 13.841 109.791 14.1271C110.005 14.2416 110.148 14.3918 110.22 14.5779C110.306 14.7639 110.327 14.957 110.284 15.1574C110.241 15.3434 110.156 15.5151 110.027 15.6725C109.898 15.8156 109.733 15.9086 109.533 15.9515C109.347 15.9801 109.132 15.9372 108.889 15.8227C108.446 15.5938 108.016 15.4292 107.601 15.3291C107.201 15.2289 106.814 15.1788 106.442 15.1788C105.741 15.1788 105.219 15.3005 104.876 15.5437C104.546 15.787 104.382 16.1089 104.382 16.5096C104.382 16.81 104.482 17.0604 104.682 17.2608C104.883 17.4611 105.19 17.597 105.605 17.6686L107.752 18.0764C108.682 18.2481 109.383 18.5629 109.855 19.0208C110.342 19.4786 110.585 20.0939 110.585 20.8666C110.585 21.9112 110.177 22.7339 109.361 23.3349C108.546 23.9215 107.458 24.2149 106.099 24.2149Z" fill="#00CF63"/>
</svg>
