<svg width="25" height="26" viewBox="0 0 25 26" fill="none" xmlns="http://www.w3.org/2000/svg">
<g clip-path="url(#clip0_2058_9854)">
<path d="M10.4768 25.2029C4.63508 24.1575 0.207642 19.1152 0.207642 13.0275C0.207642 6.26333 5.74193 0.729034 12.5061 0.729034C19.2702 0.729034 24.8045 6.26333 24.8045 13.0275C24.8045 19.1152 20.3771 24.1575 14.5353 25.2029L13.8589 24.6495H11.1532L10.4768 25.2029Z" fill="url(#paint0_linear_2058_9854)"/>
<path d="M17.2996 16.4726L17.853 13.029H14.5939V10.6308C14.5939 9.64697 14.9629 8.90906 16.4387 8.90906H18.0375V5.77296C17.1766 5.64998 16.1927 5.52699 15.3318 5.52699C12.5032 5.52699 10.5354 7.24877 10.5354 10.3234V13.029H7.46082V16.4726H10.5354V25.143C11.2118 25.266 11.8882 25.3275 12.5647 25.3275C13.2411 25.3275 13.9175 25.266 14.5939 25.143V16.4726H17.2996Z" fill="white"/>
</g>
<defs>
<linearGradient id="paint0_linear_2058_9854" x1="12.5067" y1="24.4705" x2="12.5067" y2="0.724504" gradientUnits="userSpaceOnUse">
<stop stop-color="#0062E0"/>
<stop offset="1" stop-color="#19AFFF"/>
</linearGradient>
<clipPath id="clip0_2058_9854">
<rect width="24.5969" height="24.5969" fill="white" transform="translate(0.207764 0.729767)"/>
</clipPath>
</defs>
</svg>
