<svg width="14" height="14" viewBox="0 0 14 14" fill="none" xmlns="http://www.w3.org/2000/svg">
<path fill-rule="evenodd" clip-rule="evenodd" d="M6.84561 0.534212C6.71671 0.539695 6.6049 0.624736 6.56522 0.747511L5.1134 5.24716L0.38669 5.23781C0.252948 5.2376 0.134257 5.32371 0.0929704 5.45089C0.0516866 5.57808 0.0970558 5.71741 0.205317 5.79589L4.03535 8.5674L2.56471 13.0624L2.56482 13.0623C2.52321 13.1895 2.56837 13.3288 2.67663 13.4075C2.78478 13.4861 2.93132 13.486 3.03937 13.4072L6.85867 10.62L10.6793 13.4072V13.4071C10.7874 13.4859 10.9339 13.486 11.0422 13.4074C11.1504 13.3287 11.1955 13.1892 11.1539 13.0622L9.68327 8.56719L13.5133 5.79567L13.5134 5.79578C13.6218 5.7173 13.6671 5.57797 13.6259 5.45068C13.5845 5.32349 13.4659 5.23738 13.332 5.2377L8.60531 5.24705L7.15188 0.747401C7.1093 0.615593 6.98406 0.528404 6.84569 0.534209L6.84561 0.534212Z" fill="#FFA527"/>
</svg>
