<svg width="25" height="24" viewBox="0 0 25 24" fill="none" xmlns="http://www.w3.org/2000/svg">
<path opacity="0.4" d="M16.2201 2.00024H8.78008C8.40008 2.00024 8.08008 2.32024 8.08008 2.70024C8.08008 3.08024 8.40008 3.40024 8.78008 3.40024H12.0401L13.4401 5.26024C13.7501 5.67024 13.7901 5.73024 14.3701 5.73024H18.0901C18.4701 5.73024 18.8401 5.78024 19.2001 5.88024C19.2401 6.06024 19.2601 6.24024 19.2601 6.43024V6.78024C19.2601 7.16024 19.5801 7.48024 19.9601 7.48024C20.3401 7.48024 20.6601 7.16024 20.6601 6.78024V6.42024C20.6401 3.98024 18.6601 2.00024 16.2201 2.00024Z" fill="#292D32"/>
<path d="M20.64 6.54024C20.21 6.23024 19.72 6.00024 19.19 5.87024C18.84 5.77024 18.46 5.72024 18.08 5.72024H14.36C13.78 5.72024 13.74 5.66024 13.43 5.25024L12.03 3.39024C11.38 2.53024 10.87 2.00024 9.24 2.00024H6.92C4.48 2.00024 2.5 3.98024 2.5 6.42024V17.5802C2.5 20.0202 4.48 22.0002 6.92 22.0002H18.08C20.52 22.0002 22.5 20.0202 22.5 17.5802V10.1402C22.5 8.65024 21.77 7.34024 20.64 6.54024ZM14.83 16.0002H10.17C9.78 16.0002 9.47 15.6902 9.47 15.3002C9.47 14.9202 9.78 14.6002 10.17 14.6002H14.82C15.2 14.6002 15.52 14.9202 15.52 15.3002C15.52 15.6902 15.21 16.0002 14.83 16.0002Z" fill="#292D32"/>
</svg>
