<svg width="20" height="20" viewBox="0 0 20 20" fill="none" xmlns="http://www.w3.org/2000/svg">
<path opacity="0.4" d="M13.4917 7.38341C13.1667 7.38341 12.9084 7.12508 12.9084 6.80008V5.73341C12.9084 4.91675 12.5584 4.13341 11.9584 3.58341C11.3417 3.02508 10.55 2.76675 9.71672 2.84175C8.31672 2.97508 7.09172 4.40008 7.09172 5.88341V6.63341C7.09172 6.95841 6.83338 7.21675 6.50838 7.21675C6.18338 7.21675 5.92505 6.95841 5.92505 6.63341V5.88341C5.92505 3.80008 7.60838 1.87508 9.60005 1.68341C10.7584 1.57508 11.875 1.94175 12.7334 2.72508C13.5834 3.49175 14.0667 4.59175 14.0667 5.73341V6.80008C14.0667 7.12508 13.8084 7.38341 13.4917 7.38341Z" fill="#0EB000"/>
<path d="M16.6333 7.46665C15.9333 6.69165 14.7833 6.31665 13.1 6.31665H6.89995C5.21662 6.31665 4.06662 6.69165 3.36662 7.46665C2.55828 8.36665 2.58328 9.56665 2.67495 10.4L3.25828 15.0416C3.43328 16.6667 4.09162 18.3333 7.67495 18.3333H12.325C15.9083 18.3333 16.5666 16.6667 16.7416 15.05L17.325 10.3917C17.4166 9.56665 17.4416 8.36665 16.6333 7.46665ZM9.99995 15.4833C8.25828 15.4833 6.84162 14.0667 6.84162 12.325C6.84162 10.5833 8.25828 9.16665 9.99995 9.16665C11.7416 9.16665 13.1583 10.5833 13.1583 12.325C13.1583 14.0667 11.7416 15.4833 9.99995 15.4833Z" fill="#0EB000"/>
<path opacity="0.4" d="M9.99989 15.4834C11.7442 15.4834 13.1582 14.0694 13.1582 12.3251C13.1582 10.5808 11.7442 9.16675 9.99989 9.16675C8.25559 9.16675 6.84155 10.5808 6.84155 12.3251C6.84155 14.0694 8.25559 15.4834 9.99989 15.4834Z" fill="#0EB000"/>
<path d="M9.52507 13.8666C9.36673 13.8666 9.2084 13.8083 9.0834 13.6833L8.2584 12.8583C8.01673 12.6166 8.01673 12.2166 8.2584 11.975C8.50007 11.7333 8.90007 11.7333 9.14173 11.975L9.54173 12.375L10.8751 11.1416C11.1251 10.9083 11.5251 10.925 11.7584 11.175C11.9917 11.425 11.9751 11.825 11.7251 12.0583L9.95006 13.7C9.82506 13.8083 9.67507 13.8666 9.52507 13.8666Z" fill="#0EB000"/>
</svg>
