<svg width="26" height="26" viewBox="0 0 26 26" fill="none" xmlns="http://www.w3.org/2000/svg">
<g clip-path="url(#clip0_2058_9858)">
<path d="M13.0086 0.917389C7.9511 0.917389 6.47198 0.922606 6.18446 0.946457C5.14658 1.03273 4.50075 1.19614 3.79715 1.54645C3.25492 1.81571 2.82728 2.12782 2.40523 2.56533C1.6366 3.36321 1.17077 4.34482 1.00214 5.51164C0.920149 6.0781 0.896298 6.19363 0.891453 9.08702C0.88959 10.0515 0.891453 11.3208 0.891453 13.0233C0.891453 18.0767 0.897043 19.5543 0.921267 19.8413C1.00512 20.8512 1.1635 21.4866 1.4989 22.1817C2.13989 23.5121 3.36411 24.5108 4.80633 24.8835C5.30571 25.0121 5.85726 25.0829 6.56533 25.1164C6.86533 25.1295 9.92307 25.1388 12.9827 25.1388C16.0423 25.1388 19.1019 25.1351 19.3944 25.1201C20.2143 25.0816 20.6904 25.0177 21.2168 24.8816C22.6683 24.5071 23.8702 23.5233 24.5242 22.1742C24.8531 21.4959 25.0199 20.8363 25.0953 19.8791C25.1117 19.6704 25.1186 16.3431 25.1186 13.0202C25.1186 9.69671 25.1112 6.37549 25.0948 6.1668C25.0184 5.19413 24.8516 4.5401 24.5121 3.8488C24.2335 3.2829 23.9242 2.8603 23.4752 2.42819C22.6737 1.66273 21.6936 1.19689 20.5257 1.02844C19.9598 0.946643 19.847 0.92242 16.9514 0.917389H13.0086Z" fill="url(#paint0_radial_2058_9858)"/>
<path d="M13.0086 0.917389C7.9511 0.917389 6.47198 0.922606 6.18446 0.946457C5.14658 1.03273 4.50075 1.19614 3.79715 1.54645C3.25492 1.81571 2.82728 2.12782 2.40523 2.56533C1.6366 3.36321 1.17077 4.34482 1.00214 5.51164C0.920149 6.0781 0.896298 6.19363 0.891453 9.08702C0.88959 10.0515 0.891453 11.3208 0.891453 13.0233C0.891453 18.0767 0.897043 19.5543 0.921267 19.8413C1.00512 20.8512 1.1635 21.4866 1.4989 22.1817C2.13989 23.5121 3.36411 24.5108 4.80633 24.8835C5.30571 25.0121 5.85726 25.0829 6.56533 25.1164C6.86533 25.1295 9.92307 25.1388 12.9827 25.1388C16.0423 25.1388 19.1019 25.1351 19.3944 25.1201C20.2143 25.0816 20.6904 25.0177 21.2168 24.8816C22.6683 24.5071 23.8702 23.5233 24.5242 22.1742C24.8531 21.4959 25.0199 20.8363 25.0953 19.8791C25.1117 19.6704 25.1186 16.3431 25.1186 13.0202C25.1186 9.69671 25.1112 6.37549 25.0948 6.1668C25.0184 5.19413 24.8516 4.5401 24.5121 3.8488C24.2335 3.2829 23.9242 2.8603 23.4752 2.42819C22.6737 1.66273 21.6936 1.19689 20.5257 1.02844C19.9598 0.946643 19.847 0.92242 16.9514 0.917389H13.0086Z" fill="url(#paint1_radial_2058_9858)"/>
<path d="M13.0026 4.08424C10.5736 4.08424 10.2688 4.09486 9.31472 4.13828C8.36255 4.18188 7.71262 4.33263 7.14393 4.55381C6.55567 4.78225 6.05667 5.08784 5.55953 5.58517C5.06202 6.08231 4.75643 6.58131 4.52724 7.16938C4.3055 7.73826 4.15457 8.38838 4.11171 9.34017C4.06904 10.2942 4.05786 10.5992 4.05786 13.0283C4.05786 15.4573 4.06867 15.7612 4.1119 16.7153C4.15569 17.6674 4.30643 18.3174 4.52742 18.8861C4.75606 19.4743 5.06164 19.9733 5.55897 20.4705C6.05592 20.968 6.55493 21.2743 7.14281 21.5028C7.71187 21.7239 8.36199 21.8747 9.31398 21.9183C10.268 21.9617 10.5727 21.9723 13.0015 21.9723C15.4308 21.9723 15.7347 21.9617 16.6887 21.9183C17.6409 21.8747 18.2916 21.7239 18.8606 21.5028C19.4487 21.2743 19.947 20.968 20.4439 20.4705C20.9414 19.9733 21.247 19.4743 21.4762 18.8863C21.6961 18.3174 21.847 17.6673 21.8917 16.7155C21.9346 15.7614 21.9458 15.4573 21.9458 13.0283C21.9458 10.5992 21.9346 10.2944 21.8917 9.34036C21.847 8.38819 21.6961 7.73826 21.4762 7.16956C21.247 6.58131 20.9414 6.08231 20.4439 5.58517C19.9464 5.08765 19.4489 4.78207 18.8601 4.55381C18.2899 4.33263 17.6396 4.18188 16.6874 4.13828C15.7334 4.09486 15.4297 4.08424 12.9999 4.08424H13.0026ZM12.2003 5.69603C12.4384 5.69566 12.7041 5.69603 13.0026 5.69603C15.3907 5.69603 15.6737 5.70461 16.6168 5.74746C17.4888 5.78734 17.9621 5.93305 18.2774 6.05547C18.6948 6.21758 18.9924 6.41137 19.3052 6.72441C19.6183 7.03745 19.812 7.33559 19.9745 7.75298C20.0969 8.06788 20.2428 8.54117 20.2825 9.41321C20.3254 10.3561 20.3347 10.6393 20.3347 13.0262C20.3347 15.4132 20.3254 15.6964 20.2825 16.6393C20.2427 17.5113 20.0969 17.9846 19.9745 18.2995C19.8124 18.7169 19.6183 19.0141 19.3052 19.3269C18.9922 19.64 18.695 19.8338 18.2774 19.9959C17.9625 20.1189 17.4888 20.2642 16.6168 20.3041C15.6739 20.3469 15.3907 20.3562 13.0026 20.3562C10.6144 20.3562 10.3314 20.3469 9.38851 20.3041C8.51647 20.2638 8.04318 20.1181 7.72771 19.9957C7.31032 19.8336 7.01219 19.6398 6.69915 19.3268C6.38611 19.0137 6.19232 18.7163 6.02984 18.2987C5.90741 17.9838 5.76151 17.5106 5.72183 16.6385C5.67897 15.6957 5.6704 15.4124 5.6704 13.024C5.6704 10.6356 5.67897 10.3538 5.72183 9.41098C5.7617 8.53894 5.90741 8.06565 6.02984 7.75037C6.19195 7.33298 6.38611 7.03485 6.69915 6.7218C7.01219 6.40876 7.31032 6.21498 7.72771 6.05249C8.04299 5.92951 8.51647 5.78417 9.38851 5.74411C10.2136 5.70684 10.5333 5.69566 12.2003 5.6938V5.69603ZM17.7769 7.18112C17.1844 7.18112 16.7036 7.6613 16.7036 8.25403C16.7036 8.84657 17.1844 9.32731 17.7769 9.32731C18.3694 9.32731 18.8502 8.84657 18.8502 8.25403C18.8502 7.66149 18.3694 7.18075 17.7769 7.18075V7.18112ZM13.0026 8.43515C10.4661 8.43515 8.40951 10.4917 8.40951 13.0283C8.40951 15.5649 10.4661 17.6205 13.0026 17.6205C15.5392 17.6205 17.595 15.5649 17.595 13.0283C17.595 10.4917 15.539 8.43515 13.0025 8.43515H13.0026ZM13.0026 10.0469C14.6491 10.0469 15.984 11.3816 15.984 13.0283C15.984 14.6747 14.6491 16.0096 13.0026 16.0096C11.356 16.0096 10.0213 14.6747 10.0213 13.0283C10.0213 11.3816 11.356 10.0469 13.0026 10.0469Z" fill="white"/>
</g>
<defs>
<radialGradient id="paint0_radial_2058_9858" cx="0" cy="0" r="1" gradientUnits="userSpaceOnUse" gradientTransform="translate(7.32622 27.0043) rotate(-90) scale(24.0052 22.3328)">
<stop stop-color="#FFDD55"/>
<stop offset="0.1" stop-color="#FFDD55"/>
<stop offset="0.5" stop-color="#FF543E"/>
<stop offset="1" stop-color="#C837AB"/>
</radialGradient>
<radialGradient id="paint1_radial_2058_9858" cx="0" cy="0" r="1" gradientUnits="userSpaceOnUse" gradientTransform="translate(-3.16769 2.66226) rotate(78.6776) scale(10.7305 44.2428)">
<stop stop-color="#3771C8"/>
<stop offset="0.128" stop-color="#3771C8"/>
<stop offset="1" stop-color="#6600FF" stop-opacity="0"/>
</radialGradient>
<clipPath id="clip0_2058_9858">
<rect width="24.5969" height="24.5961" fill="white" transform="translate(0.70166 0.730133)"/>
</clipPath>
</defs>
</svg>
