<svg width="24" height="24" viewBox="0 0 24 24" fill="none" xmlns="http://www.w3.org/2000/svg">
<path fill-rule="evenodd" clip-rule="evenodd" d="M11.9879 23.7884C18.483 23.7884 23.7483 18.5231 23.7483 12.028C23.7483 5.53294 18.483 0.267639 11.9879 0.267639C5.49284 0.267639 0.227539 5.53294 0.227539 12.028C0.227539 18.5231 5.49284 23.7884 11.9879 23.7884Z" fill="#007EBB"/>
<path fill-rule="evenodd" clip-rule="evenodd" d="M19.4978 18.89H16.5444V13.8597C16.5444 12.4806 16.0204 11.7098 14.9288 11.7098C13.7413 11.7098 13.1208 12.5119 13.1208 13.8597V18.89H10.2746V9.30744H13.1208V10.5982C13.1208 10.5982 13.9766 9.01468 16.0101 9.01468C18.0427 9.01468 19.4978 10.2559 19.4978 12.8229V18.89ZM6.8791 8.05268C5.90962 8.05268 5.12402 7.26092 5.12402 6.28443C5.12402 5.30794 5.90962 4.51617 6.8791 4.51617C7.84859 4.51617 8.63372 5.30794 8.63372 6.28443C8.63372 7.26092 7.84859 8.05268 6.8791 8.05268ZM5.40944 18.89H8.37731V9.30744H5.40944V18.89Z" fill="white"/>
</svg>
