<svg width="27" height="20" viewBox="0 0 27 20" fill="none" xmlns="http://www.w3.org/2000/svg">
<path d="M7.84121 15.4217C7.74648 15.6198 7.62591 15.8566 7.4795 16.1322C7.34171 16.3992 7.18239 16.6791 7.00154 16.9719C6.82069 17.2647 6.61831 17.5575 6.39439 17.8503C6.17048 18.1345 5.92504 18.3929 5.65807 18.6254C5.39971 18.8493 5.11982 19.0301 4.8184 19.1679C4.52559 19.3143 4.21126 19.3875 3.87539 19.3875C3.35867 19.3875 2.91515 19.2282 2.54484 18.9096C2.17452 18.5909 1.86019 18.1733 1.60183 17.6565C1.34347 17.1398 1.13248 16.5542 0.968848 15.8997C0.813832 15.2366 0.693264 14.5648 0.607145 13.8845C0.521025 13.1955 0.460741 12.5281 0.426293 11.8822C0.400457 11.2363 0.387539 10.6636 0.387539 10.1641C0.387539 9.4407 0.409069 8.69146 0.452129 7.91638C0.503801 7.1413 0.581309 6.38345 0.684652 5.64282C0.787996 4.90219 0.917176 4.20031 1.07219 3.53719C1.23582 2.87407 1.42528 2.29276 1.64058 1.79327C1.86449 1.29377 2.11855 0.89762 2.40274 0.604813C2.68694 0.312006 3.00989 0.165602 3.37159 0.165602C3.65579 0.165602 3.90984 0.234498 4.13375 0.37229C4.36627 0.501469 4.56004 0.716769 4.71506 1.01819C4.87007 1.31961 4.99064 1.71145 5.07676 2.19372C5.16288 2.67599 5.20594 3.26591 5.20594 3.96348C5.20594 4.82468 5.11552 5.71602 4.93466 6.6375C4.75381 7.55037 4.50837 8.47186 4.19834 9.40195C3.88831 10.332 3.5223 11.2621 3.10031 12.1922C2.67833 13.1137 2.2262 14.0137 1.74393 14.8921C1.95923 15.9858 2.24773 16.847 2.60943 17.4757C2.97113 18.0957 3.40604 18.4058 3.91414 18.4058C4.25862 18.4058 4.59018 18.2723 4.90883 18.0053C5.22747 17.7297 5.52028 17.4068 5.78725 17.0365C6.05422 16.6662 6.28674 16.2915 6.48482 15.9126C6.69151 15.5251 6.85083 15.215 6.96278 14.9825C7.00584 14.8964 7.06613 14.8318 7.14364 14.7887C7.22114 14.7371 7.30726 14.7112 7.402 14.7112C7.5484 14.7112 7.66466 14.7629 7.75078 14.8663C7.84551 14.9696 7.89288 15.0859 7.89288 15.215C7.89288 15.2667 7.87565 15.3356 7.84121 15.4217ZM1.3693 10.2287C1.3693 10.7799 1.38222 11.3095 1.40806 11.8176C1.43389 12.3257 1.46834 12.8123 1.5114 13.2773C1.87311 12.5798 2.21758 11.8391 2.54484 11.0554C2.87209 10.2631 3.1606 9.46654 3.41034 8.66563C3.66009 7.8561 3.85817 7.05519 4.00457 6.26288C4.15959 5.46197 4.23709 4.69981 4.23709 3.9764C4.23709 2.96019 4.15528 2.23248 3.99165 1.79327C3.82802 1.35406 3.60842 1.13445 3.33284 1.13445C3.15198 1.13445 2.97544 1.25932 2.8032 1.50907C2.63957 1.75882 2.48456 2.09899 2.33815 2.52959C2.19175 2.96019 2.05826 3.4683 1.9377 4.05391C1.81713 4.63953 1.71378 5.2682 1.62766 5.93993C1.55016 6.61167 1.48557 7.31354 1.43389 8.04556C1.39083 8.77758 1.3693 9.50529 1.3693 10.2287ZM9.08133 8.85939C9.08133 9.18665 8.96507 9.46654 8.73255 9.69906C8.50864 9.92297 8.23305 10.0349 7.9058 10.0349C7.57854 10.0349 7.29865 9.92297 7.06613 9.69906C6.84222 9.46654 6.73026 9.18665 6.73026 8.85939C6.73026 8.69577 6.7604 8.54506 6.82069 8.40727C6.88097 8.26086 6.96279 8.13599 7.06613 8.03264C7.17808 7.92069 7.30296 7.83457 7.44075 7.77429C7.58715 7.714 7.74217 7.68386 7.9058 7.68386C8.06942 7.68386 8.22013 7.714 8.35793 7.77429C8.50433 7.83457 8.6292 7.92069 8.73255 8.03264C8.8445 8.13599 8.93062 8.26086 8.99091 8.40727C9.05119 8.54506 9.08133 8.69577 9.08133 8.85939ZM6.98862 16.4293C6.98862 15.1892 7.06613 13.9534 7.22114 12.7219C7.23837 12.6013 7.29004 12.498 7.37616 12.4118C7.47089 12.3171 7.59146 12.2697 7.73786 12.2697C7.86704 12.2697 7.97469 12.3214 8.06081 12.4248C8.14693 12.5195 8.18999 12.6314 8.18999 12.7606C8.18999 12.8123 8.17707 12.9673 8.15124 13.2257C8.13401 13.484 8.10818 13.7941 8.07373 14.1558C8.04789 14.5089 8.02206 14.8878 7.99622 15.2925C7.979 15.6887 7.97039 16.0547 7.97039 16.3906C7.97039 16.847 8.01345 17.2173 8.09957 17.5015C8.1943 17.7771 8.31056 17.9924 8.44835 18.1474C8.59476 18.3024 8.74546 18.4058 8.90048 18.4574C9.06411 18.5091 9.21912 18.535 9.36553 18.535C9.60666 18.535 9.85641 18.4488 10.1148 18.2766C10.3731 18.1044 10.6358 17.8632 10.9028 17.5532C11.1783 17.2432 11.4539 16.8728 11.7295 16.4422C12.0051 16.003 12.2764 15.5165 12.5433 14.9825C12.5864 14.8964 12.6467 14.8318 12.7242 14.7887C12.8017 14.7371 12.8878 14.7112 12.9826 14.7112C13.1204 14.7112 13.2323 14.7629 13.3184 14.8663C13.4132 14.9696 13.4605 15.0815 13.4605 15.2021C13.4605 15.2882 13.4433 15.3614 13.4089 15.4217C13.3055 15.6198 13.1763 15.8609 13.0213 16.1451C12.8663 16.4293 12.6898 16.7221 12.4917 17.0236C12.2936 17.325 12.074 17.6264 11.8329 17.9278C11.6003 18.2206 11.3506 18.4876 11.0836 18.7287C10.8166 18.9612 10.5368 19.1507 10.2439 19.2971C9.95114 19.4435 9.65403 19.5167 9.35261 19.5167C8.96507 19.5167 8.6249 19.4349 8.33209 19.2713C8.03928 19.1076 7.78954 18.888 7.58285 18.6125C7.38477 18.3369 7.23406 18.0139 7.13072 17.6436C7.03599 17.2647 6.98862 16.8599 6.98862 16.4293ZM8.35793 8.85939C8.35793 8.73883 8.31056 8.63548 8.21583 8.54936C8.12971 8.45463 8.02636 8.40727 7.9058 8.40727C7.78523 8.40727 7.68189 8.45463 7.59577 8.54936C7.50965 8.63548 7.46659 8.73883 7.46659 8.85939C7.46659 8.97996 7.50965 9.08331 7.59577 9.16943C7.68189 9.25555 7.78523 9.29861 7.9058 9.29861C8.02636 9.29861 8.12971 9.25555 8.21583 9.16943C8.31056 9.08331 8.35793 8.97996 8.35793 8.85939ZM22.994 6.06911C22.994 6.20691 22.9466 6.31886 22.8519 6.40498C22.7572 6.48249 22.6409 6.52124 22.5031 6.52124H15.9537V6.66334C15.9537 7.18867 15.9149 7.74845 15.8374 8.34268C15.7599 8.9369 15.6523 9.53113 15.5145 10.1254C15.3853 10.711 15.2346 11.2837 15.0624 11.8434C14.8987 12.4032 14.7265 12.9199 14.5456 13.3936C14.3734 13.8673 14.2012 14.2806 14.0289 14.6337C13.8567 14.9782 13.7017 15.2366 13.5639 15.4088C13.6758 15.805 13.8093 16.1753 13.9643 16.5198C14.1193 16.8556 14.2916 17.1527 14.481 17.4111C14.6791 17.6608 14.8901 17.8589 15.114 18.0053C15.3379 18.1517 15.5791 18.2249 15.8374 18.2249C16.1388 18.2249 16.436 18.1 16.7288 17.8503C17.0302 17.5919 17.3058 17.2905 17.5555 16.946C17.8139 16.593 18.0378 16.2399 18.2273 15.8868C18.4253 15.5251 18.5674 15.2366 18.6535 15.0213C18.7397 14.8146 18.8904 14.7112 19.1057 14.7112C19.2521 14.7112 19.3683 14.7629 19.4545 14.8663C19.5492 14.9696 19.5966 15.0815 19.5966 15.2021C19.5966 15.2624 19.5836 15.3227 19.5578 15.383C19.532 15.4433 19.4674 15.581 19.364 15.7963C19.2693 16.0116 19.1401 16.2614 18.9765 16.5456C18.8215 16.8298 18.6363 17.1312 18.421 17.4498C18.2143 17.7599 17.9775 18.0441 17.7105 18.3024C17.4522 18.5608 17.1723 18.7761 16.8709 18.9483C16.5694 19.1206 16.2508 19.2067 15.9149 19.2067C15.3207 19.2067 14.7868 19.0129 14.3131 18.6254C13.8395 18.2378 13.4347 17.6953 13.0988 16.9977C12.7716 16.3001 12.5218 15.4734 12.3496 14.5175C12.1773 13.5615 12.0912 12.5152 12.0912 11.3784C12.0912 11.0942 12.0955 10.7626 12.1041 10.3837C12.1127 9.99618 12.13 9.59141 12.1558 9.16943C12.1816 8.73883 12.2204 8.29962 12.2721 7.85179C12.3237 7.39536 12.3926 6.95184 12.4788 6.52124H7.84121C7.70342 6.52124 7.58715 6.48249 7.49242 6.40498C7.39769 6.31886 7.35032 6.20691 7.35032 6.06911C7.35032 5.93132 7.39769 5.82367 7.49242 5.74616C7.58715 5.66004 7.70342 5.61698 7.84121 5.61698H12.6984C12.7845 5.30695 12.8835 5.02276 12.9955 4.7644C13.116 4.50604 13.2495 4.28213 13.3959 4.09266C13.5509 3.9032 13.7189 3.7568 13.8997 3.65345C14.0892 3.5415 14.2959 3.48552 14.5198 3.48552C14.7351 3.48552 14.9203 3.5415 15.0753 3.65345C15.2389 3.7568 15.3767 3.9032 15.4886 4.09266C15.6006 4.28213 15.6867 4.50604 15.747 4.7644C15.8159 5.02276 15.8676 5.30695 15.902 5.61698H22.5031C22.6409 5.61698 22.7572 5.66004 22.8519 5.74616C22.9466 5.82367 22.994 5.93132 22.994 6.06911ZM13.2668 14.117C13.5251 13.5486 13.7576 12.9372 13.9643 12.2827C14.1796 11.6195 14.3605 10.9521 14.5069 10.2804C14.6619 9.60864 14.7782 8.94982 14.8557 8.30392C14.9418 7.65802 14.9848 7.0638 14.9848 6.52124H13.4605C13.34 7.05519 13.2409 7.71831 13.1634 8.51061C13.0945 9.2943 13.0601 10.2502 13.0601 11.3784C13.0601 12.0071 13.0773 12.5367 13.1117 12.9673C13.1462 13.3893 13.1979 13.7725 13.2668 14.117ZM14.4681 4.45437C14.3906 4.45437 14.2787 4.54049 14.1323 4.71273C13.9859 4.87635 13.8395 5.17777 13.693 5.61698H14.9332C14.8901 5.25528 14.8255 4.97109 14.7394 4.7644C14.6619 4.55771 14.5715 4.45437 14.4681 4.45437ZM13.4734 15.0471V15.06V15.0471ZM20.2554 17.579C20.4362 17.8288 20.6688 18.0312 20.9529 18.1862C21.2371 18.3326 21.5859 18.4058 21.9993 18.4058C22.4213 18.4058 22.8045 18.3067 23.149 18.1087C23.4935 17.902 23.8078 17.635 24.092 17.3077C24.3762 16.9805 24.6303 16.6145 24.8542 16.2097C25.0781 15.805 25.2805 15.4002 25.4613 14.9954C25.5044 14.9007 25.5647 14.8318 25.6422 14.7887C25.7197 14.7371 25.8058 14.7112 25.9005 14.7112C26.0469 14.7112 26.1632 14.7629 26.2493 14.8663C26.344 14.9696 26.3914 15.0815 26.3914 15.2021C26.3914 15.2452 26.3871 15.2839 26.3785 15.3184C26.3699 15.3442 26.357 15.3744 26.3397 15.4088C25.7455 16.7178 25.0953 17.7039 24.3891 18.367C23.6916 19.0301 22.8993 19.3703 22.0122 19.3875C21.4438 19.3875 20.9529 19.2756 20.5396 19.0517C20.1262 18.8364 19.786 18.5565 19.5191 18.212C19.2521 17.8589 19.054 17.4628 18.9248 17.0236C18.7956 16.5843 18.7311 16.1451 18.7311 15.7059C18.7311 15.2667 18.7827 14.8619 18.8861 14.4916C18.998 14.1213 19.153 13.7984 19.3511 13.5228C19.5578 13.2472 19.7989 13.0319 20.0745 12.8769C20.3587 12.7219 20.6688 12.6444 21.0046 12.6444C21.2027 12.6444 21.3965 12.6874 21.5859 12.7735C21.784 12.851 21.9605 12.9673 22.1156 13.1223C22.2706 13.2687 22.3955 13.4496 22.4902 13.6649C22.5849 13.8802 22.6323 14.1256 22.6323 14.4012C22.6323 14.7543 22.572 15.0859 22.4514 15.3959C22.3309 15.7059 22.1629 15.9944 21.9476 16.2614C21.7409 16.5284 21.4912 16.7738 21.1984 16.9977C20.9056 17.2216 20.5912 17.4154 20.2554 17.579ZM19.8678 16.7394C20.1348 16.6274 20.3759 16.4853 20.5912 16.3131C20.8152 16.1408 21.0046 15.9514 21.1596 15.7447C21.3146 15.538 21.4352 15.3227 21.5213 15.0988C21.6075 14.8663 21.6505 14.6337 21.6505 14.4012C21.6505 14.1428 21.5859 13.9491 21.4567 13.8199C21.3276 13.6821 21.1769 13.6132 21.0046 13.6132C20.7721 13.6132 20.574 13.6778 20.4104 13.807C20.2468 13.9362 20.1133 14.1041 20.0099 14.3108C19.9066 14.5175 19.8291 14.75 19.7774 15.0083C19.7344 15.2581 19.7128 15.5078 19.7128 15.7576C19.7128 15.9126 19.7257 16.0762 19.7516 16.2485C19.786 16.4207 19.8248 16.5843 19.8678 16.7394Z" fill="#00CF63"/>
</svg>
