<svg width="25" height="24" viewBox="0 0 25 24" fill="none" xmlns="http://www.w3.org/2000/svg">
<path opacity="0.4" d="M21.1201 8.44976C20.0701 3.82976 16.0401 1.74976 12.5001 1.74976C12.5001 1.74976 12.5001 1.74976 12.4901 1.74976C8.9601 1.74976 4.9201 3.81976 3.8701 8.43976C2.7001 13.5998 5.8601 17.9698 8.7201 20.7198C9.7801 21.7398 11.1401 22.2498 12.5001 22.2498C13.8601 22.2498 15.2201 21.7398 16.2701 20.7198C19.1301 17.9698 22.2901 13.6098 21.1201 8.44976Z" fill="#292D32"/>
<path d="M12.5001 13.4599C14.2398 13.4599 15.6501 12.0496 15.6501 10.3099C15.6501 8.57022 14.2398 7.15991 12.5001 7.15991C10.7604 7.15991 9.3501 8.57022 9.3501 10.3099C9.3501 12.0496 10.7604 13.4599 12.5001 13.4599Z" fill="#292D32"/>
</svg>
