<svg width="18" height="19" viewBox="0 0 18 19" fill="none" xmlns="http://www.w3.org/2000/svg">
<path d="M16.5 7.89111V11.6411C16.5 14.2661 15 15.3911 12.75 15.3911H5.25C3 15.3911 1.5 14.2661 1.5 11.6411V6.39111C1.5 3.76611 3 2.64111 5.25 2.64111H10.5" stroke="#212121" stroke-width="1.2" stroke-miterlimit="10" stroke-linecap="round" stroke-linejoin="round"/>
<path d="M5.25 6.76611L7.5975 8.64111C8.37 9.25611 9.6375 9.25611 10.41 8.64111L11.295 7.93611" stroke="#212121" stroke-width="1.2" stroke-miterlimit="10" stroke-linecap="round" stroke-linejoin="round"/>
<path d="M14.625 6.01611C15.6605 6.01611 16.5 5.17665 16.5 4.14111C16.5 3.10558 15.6605 2.26611 14.625 2.26611C13.5895 2.26611 12.75 3.10558 12.75 4.14111C12.75 5.17665 13.5895 6.01611 14.625 6.01611Z" stroke="#212121" stroke-width="1.2" stroke-miterlimit="10" stroke-linecap="round" stroke-linejoin="round"/>
</svg>
