<svg width="143" height="34" viewBox="0 0 143 34" fill="none" xmlns="http://www.w3.org/2000/svg">
<rect y="0.499756" width="33.0006" height="33.0006" rx="8.05679" fill="#00CF63"/>
<ellipse cx="8.3577" cy="17.0004" rx="3.25711" ry="2.57855" fill="#FFFEFE"/>
<path fill-rule="evenodd" clip-rule="evenodd" d="M15.4195 5.32592C15.2783 5.35038 14.8163 5.42128 14.3927 5.48355C11.0659 5.97246 7.77544 8.30265 6.23585 11.26C5.83162 12.0364 5.7999 12.2647 6.02198 12.7968C6.22538 13.2838 6.74121 13.5902 7.35817 13.5902C7.79084 13.5902 7.88786 13.5456 8.21878 13.1948C8.42382 12.9773 8.7534 12.5302 8.95105 12.2012C10.0079 10.4421 11.9637 9.02369 14.1361 8.44076C15.2395 8.14462 17.0919 8.11811 18.2168 8.38219C20.8584 9.00242 22.9858 10.6666 24.1524 13.025C24.7547 14.2431 25.063 15.3164 24.8492 15.452C24.7734 15.5001 20.5124 15.5401 15.3802 15.541C6.16891 15.5425 6.04477 15.5452 5.71027 15.7521C4.77327 16.3317 4.95089 17.8073 6.00586 18.2073C6.40998 18.3606 26.5851 18.3606 26.9892 18.2073C27.8036 17.8985 28.0154 17.3054 27.8462 15.8072C27.2582 10.5989 23.6309 6.56886 18.6023 5.53708C17.8121 5.37483 15.8776 5.24649 15.4195 5.32592ZM25.2248 20.1175C24.7568 20.28 24.7363 20.304 24.0129 21.5427C22.7966 23.6257 20.7622 25.1044 18.3316 25.672C17.3957 25.8905 15.4871 25.8913 14.5618 25.6735C13.0981 25.329 11.5118 24.4917 10.4228 23.4889C9.8633 22.9738 9.01973 21.8383 8.6459 21.0971C8.31406 20.4391 7.98037 20.1683 7.40674 20.0913C6.63977 19.9884 5.87085 20.6869 5.87085 21.4866C5.87085 21.6588 6.05083 22.1476 6.27076 22.573C7.25499 24.4765 8.77732 26.046 10.7487 27.1896C16.3631 30.4465 23.8307 28.2351 26.7698 22.4452C27.0802 21.8337 27.1397 21.6218 27.0949 21.2873C26.968 20.3404 26.1167 19.8079 25.2248 20.1175Z" fill="white"/>
<path d="M41.1941 24.6717C40.7935 24.6717 40.4858 24.5572 40.2712 24.3283C40.0566 24.0994 39.9493 23.7846 39.9493 23.3839V10.4845C39.9493 10.0695 40.0637 9.75472 40.2927 9.54009C40.5216 9.31114 40.8364 9.19667 41.2371 9.19667C41.5948 9.19667 41.8738 9.26822 42.0741 9.41131C42.2888 9.54009 42.4819 9.76903 42.6536 10.0981L47.9551 19.9069H47.2682L52.5697 10.0981C52.7414 9.76903 52.9274 9.54009 53.1277 9.41131C53.328 9.26822 53.6071 9.19667 53.9648 9.19667C54.3654 9.19667 54.6731 9.31114 54.8877 9.54009C55.1023 9.75472 55.2097 10.0695 55.2097 10.4845V23.3839C55.2097 23.7846 55.1023 24.0994 54.8877 24.3283C54.6874 24.5572 54.3797 24.6717 53.9648 24.6717C53.5641 24.6717 53.2565 24.5572 53.0419 24.3283C52.8272 24.0994 52.7199 23.7846 52.7199 23.3839V13.4464H53.1921L48.6848 21.6668C48.5417 21.9101 48.3915 22.089 48.2341 22.2034C48.0767 22.3179 47.8621 22.3751 47.5902 22.3751C47.3183 22.3751 47.0965 22.3179 46.9248 22.2034C46.7531 22.0746 46.6029 21.8958 46.4741 21.6668L41.9239 13.4249H42.439V23.3839C42.439 23.7846 42.3317 24.0994 42.1171 24.3283C41.9167 24.5572 41.6091 24.6717 41.1941 24.6717ZM60.9439 28.5351C60.6291 28.5351 60.3715 28.4492 60.1712 28.2775C59.9709 28.1201 59.8493 27.9055 59.8063 27.6336C59.7777 27.3618 59.8278 27.0756 59.9566 26.7751L61.4161 23.5342V24.6502L57.5098 15.6142C57.381 15.2994 57.338 15.0061 57.381 14.7342C57.4239 14.4623 57.5527 14.2477 57.7673 14.0903C57.9963 13.9186 58.3039 13.8327 58.6902 13.8327C59.0193 13.8327 59.2841 13.9114 59.4844 14.0688C59.6847 14.2119 59.8636 14.491 60.021 14.9059L62.9185 22.139H62.2746L65.2365 14.8844C65.3939 14.4838 65.58 14.2119 65.7946 14.0688C66.0092 13.9114 66.2954 13.8327 66.6531 13.8327C66.9679 13.8327 67.2183 13.9186 67.4043 14.0903C67.5903 14.2477 67.7048 14.4623 67.7477 14.7342C67.7907 14.9918 67.7406 15.2779 67.5975 15.5927L62.3819 27.5049C62.1959 27.9055 61.9956 28.1774 61.781 28.3205C61.5663 28.4636 61.2873 28.5351 60.9439 28.5351ZM71.2971 24.5C70.8249 24.5 70.46 24.3784 70.2024 24.1351C69.9592 23.8776 69.8376 23.5127 69.8376 23.0405V10.8279C69.8376 10.3557 69.9592 9.99797 70.2024 9.75472C70.46 9.49716 70.8249 9.36838 71.2971 9.36838H78.9595C79.3172 9.36838 79.5891 9.46139 79.7751 9.6474C79.9754 9.83342 80.0756 10.0981 80.0756 10.4415C80.0756 10.7993 79.9754 11.0783 79.7751 11.2786C79.5891 11.4646 79.3172 11.5576 78.9595 11.5576H72.4775V15.7215H78.4873C78.8593 15.7215 79.1383 15.8145 79.3243 16.0005C79.5104 16.1866 79.6034 16.4584 79.6034 16.8161C79.6034 17.1739 79.5104 17.4457 79.3243 17.6317C79.1383 17.8178 78.8593 17.9108 78.4873 17.9108H72.4775V22.3107H78.9595C79.3172 22.3107 79.5891 22.4038 79.7751 22.5898C79.9754 22.7758 80.0756 23.0477 80.0756 23.4054C80.0756 23.7631 79.9754 24.035 79.7751 24.221C79.5891 24.407 79.3172 24.5 78.9595 24.5H71.2971ZM85.7375 24.7146C84.9791 24.7146 84.2995 24.5715 83.6985 24.2854C83.1118 23.9849 82.6468 23.5842 82.3034 23.0834C81.9743 22.5826 81.8097 22.0174 81.8097 21.3878C81.8097 20.6151 82.01 20.007 82.4107 19.5634C82.8113 19.1056 83.4624 18.7765 84.3639 18.5761C85.2653 18.3758 86.4744 18.2756 87.9912 18.2756H89.0643V19.821H88.0126C87.1255 19.821 86.4172 19.8639 85.8877 19.9498C85.3583 20.0356 84.9791 20.1859 84.7502 20.4005C84.5356 20.6008 84.4282 20.887 84.4282 21.259C84.4282 21.7312 84.5928 22.1176 84.9219 22.4181C85.251 22.7185 85.7089 22.8688 86.2956 22.8688C86.7677 22.8688 87.1827 22.7615 87.5404 22.5468C87.9125 22.3179 88.2058 22.0103 88.4204 21.6239C88.6351 21.2376 88.7424 20.794 88.7424 20.2932V17.8249C88.7424 17.1095 88.585 16.5944 88.2702 16.2796C87.9554 15.9648 87.426 15.8074 86.6819 15.8074C86.2669 15.8074 85.8162 15.8574 85.3297 15.9576C84.8575 16.0578 84.3567 16.2295 83.8273 16.4727C83.5554 16.6015 83.3122 16.6373 83.0975 16.58C82.8972 16.5228 82.7398 16.4083 82.6253 16.2366C82.5109 16.0506 82.4536 15.8503 82.4536 15.6357C82.4536 15.421 82.5109 15.2135 82.6253 15.0132C82.7398 14.7986 82.933 14.6412 83.2048 14.541C83.863 14.2692 84.4926 14.076 85.0936 13.9615C85.7089 13.8471 86.2669 13.7898 86.7677 13.7898C87.798 13.7898 88.6422 13.9472 89.3004 14.262C89.9729 14.5768 90.4737 15.0562 90.8028 15.7001C91.1319 16.3296 91.2965 17.1452 91.2965 18.1469V23.2981C91.2965 23.7416 91.1892 24.085 90.9746 24.3283C90.7599 24.5572 90.4523 24.6717 90.0516 24.6717C89.651 24.6717 89.3362 24.5572 89.1072 24.3283C88.8926 24.085 88.7853 23.7416 88.7853 23.2981V22.2678H88.957C88.8568 22.7686 88.6565 23.205 88.356 23.5771C88.0699 23.9348 87.705 24.2138 87.2614 24.4141C86.8178 24.6145 86.3099 24.7146 85.7375 24.7146ZM98.8274 24.7146C97.8974 24.7146 97.1175 24.5572 96.4879 24.2424C95.8727 23.9276 95.4148 23.4698 95.1143 22.8688C94.8138 22.2535 94.6636 21.4951 94.6636 20.5937V16.022H93.5475C93.204 16.022 92.9393 15.9361 92.7533 15.7644C92.5673 15.5784 92.4743 15.328 92.4743 15.0132C92.4743 14.6841 92.5673 14.4337 92.7533 14.262C92.9393 14.0903 93.204 14.0045 93.5475 14.0045H94.6636V12.0513C94.6636 11.6077 94.778 11.2715 95.007 11.0425C95.2502 10.8136 95.5865 10.6991 96.0157 10.6991C96.445 10.6991 96.7741 10.8136 97.0031 11.0425C97.232 11.2715 97.3465 11.6077 97.3465 12.0513V14.0045H99.6216C99.965 14.0045 100.23 14.0903 100.416 14.262C100.602 14.4337 100.695 14.6841 100.695 15.0132C100.695 15.328 100.602 15.5784 100.416 15.7644C100.23 15.9361 99.965 16.022 99.6216 16.022H97.3465V20.4434C97.3465 21.1303 97.4967 21.6454 97.7972 21.9888C98.0977 22.3322 98.5842 22.5039 99.2567 22.5039C99.4999 22.5039 99.7146 22.4825 99.9006 22.4395C100.087 22.3966 100.251 22.368 100.394 22.3537C100.566 22.3394 100.709 22.3966 100.824 22.5254C100.938 22.6398 100.995 22.8831 100.995 23.2551C100.995 23.5413 100.945 23.7989 100.845 24.0278C100.759 24.2424 100.595 24.3927 100.351 24.4785C100.165 24.5358 99.9221 24.5859 99.6216 24.6288C99.3211 24.686 99.0564 24.7146 98.8274 24.7146ZM106.099 24.7146C105.484 24.7146 104.833 24.6502 104.146 24.5215C103.459 24.3927 102.844 24.1709 102.3 23.8561C102.071 23.713 101.906 23.5485 101.806 23.3624C101.72 23.1621 101.685 22.969 101.699 22.7829C101.728 22.5826 101.799 22.4109 101.914 22.2678C102.042 22.1247 102.2 22.0317 102.386 21.9888C102.586 21.9459 102.801 21.9816 103.03 22.0961C103.602 22.368 104.139 22.5611 104.639 22.6756C105.14 22.7758 105.634 22.8259 106.12 22.8259C106.807 22.8259 107.315 22.7114 107.644 22.4825C107.988 22.2392 108.159 21.9244 108.159 21.5381C108.159 21.209 108.045 20.9586 107.816 20.7869C107.601 20.6008 107.272 20.4649 106.829 20.379L104.682 19.9712C103.795 19.7995 103.116 19.4776 102.643 19.0054C102.185 18.5189 101.957 17.8965 101.957 17.1381C101.957 16.4513 102.143 15.8574 102.515 15.3566C102.901 14.8558 103.43 14.4695 104.103 14.1976C104.775 13.9258 105.548 13.7898 106.421 13.7898C107.05 13.7898 107.637 13.8614 108.181 14.0045C108.739 14.1332 109.276 14.3407 109.791 14.6269C110.005 14.7414 110.148 14.8916 110.22 15.0776C110.306 15.2636 110.327 15.4568 110.284 15.6571C110.241 15.8431 110.156 16.0148 110.027 16.1722C109.898 16.3153 109.733 16.4083 109.533 16.4513C109.347 16.4799 109.132 16.437 108.889 16.3225C108.446 16.0935 108.016 15.929 107.601 15.8288C107.201 15.7287 106.814 15.6786 106.442 15.6786C105.741 15.6786 105.219 15.8002 104.876 16.0435C104.546 16.2867 104.382 16.6087 104.382 17.0093C104.382 17.3098 104.482 17.5602 104.682 17.7605C104.883 17.9609 105.19 18.0968 105.605 18.1683L107.752 18.5761C108.682 18.7478 109.383 19.0626 109.855 19.5205C110.342 19.9784 110.585 20.5937 110.585 21.3664C110.585 22.4109 110.177 23.2337 109.361 23.8346C108.546 24.4213 107.458 24.7146 106.099 24.7146Z" fill="#00CF63"/>
<path d="M123.841 20.9215C123.746 21.1196 123.626 21.3564 123.48 21.632C123.342 21.8989 123.182 22.1788 123.002 22.4716C122.821 22.7644 122.618 23.0572 122.394 23.3501C122.17 23.6343 121.925 23.8926 121.658 24.1251C121.4 24.349 121.12 24.5299 120.818 24.6677C120.526 24.8141 120.211 24.8873 119.875 24.8873C119.359 24.8873 118.915 24.728 118.545 24.4093C118.175 24.0907 117.86 23.673 117.602 23.1563C117.343 22.6396 117.132 22.054 116.969 21.3994C116.814 20.7363 116.693 20.0646 116.607 19.3842C116.521 18.6953 116.461 18.0279 116.426 17.382C116.4 16.7361 116.388 16.1634 116.388 15.6639C116.388 14.9405 116.409 14.1912 116.452 13.4161C116.504 12.6411 116.581 11.8832 116.685 11.1426C116.788 10.4019 116.917 9.70007 117.072 9.03695C117.236 8.37383 117.425 7.79252 117.641 7.29302C117.864 6.79353 118.119 6.39738 118.403 6.10457C118.687 5.81176 119.01 5.66536 119.372 5.66536C119.656 5.66536 119.91 5.73425 120.134 5.87205C120.366 6.00123 120.56 6.21652 120.715 6.51794C120.87 6.81936 120.991 7.21121 121.077 7.69348C121.163 8.17575 121.206 8.76567 121.206 9.46324C121.206 10.3244 121.116 11.2158 120.935 12.1373C120.754 13.0501 120.508 13.9716 120.198 14.9017C119.888 15.8318 119.522 16.7619 119.1 17.692C118.678 18.6135 118.226 19.5134 117.744 20.3918C117.959 21.4856 118.248 22.3468 118.609 22.9754C118.971 23.5955 119.406 23.9055 119.914 23.9055C120.259 23.9055 120.59 23.772 120.909 23.5051C121.227 23.2295 121.52 22.9065 121.787 22.5362C122.054 22.1659 122.287 21.7913 122.485 21.4124C122.692 21.0248 122.851 20.7148 122.963 20.4823C123.006 20.3961 123.066 20.3316 123.144 20.2885C123.221 20.2368 123.307 20.211 123.402 20.211C123.548 20.211 123.665 20.2627 123.751 20.366C123.846 20.4693 123.893 20.5856 123.893 20.7148C123.893 20.7665 123.876 20.8354 123.841 20.9215ZM117.369 15.7285C117.369 16.2796 117.382 16.8093 117.408 17.3174C117.434 17.8255 117.468 18.312 117.511 18.7771C117.873 18.0795 118.218 17.3389 118.545 16.5552C118.872 15.7629 119.161 14.9663 119.41 14.1654C119.66 13.3559 119.858 12.5549 120.005 11.7626C120.16 10.9617 120.237 10.1996 120.237 9.47616C120.237 8.45995 120.155 7.73223 119.992 7.29302C119.828 6.85381 119.608 6.63421 119.333 6.63421C119.152 6.63421 118.975 6.75908 118.803 7.00883C118.64 7.25857 118.485 7.59875 118.338 8.02935C118.192 8.45995 118.058 8.96805 117.938 9.55367C117.817 10.1393 117.714 10.768 117.628 11.4397C117.55 12.1114 117.486 12.8133 117.434 13.5453C117.391 14.2773 117.369 15.005 117.369 15.7285ZM125.081 14.3592C125.081 14.6864 124.965 14.9663 124.733 15.1988C124.509 15.4227 124.233 15.5347 123.906 15.5347C123.579 15.5347 123.299 15.4227 123.066 15.1988C122.842 14.9663 122.73 14.6864 122.73 14.3592C122.73 14.1955 122.76 14.0448 122.821 13.907C122.881 13.7606 122.963 13.6357 123.066 13.5324C123.178 13.4204 123.303 13.3343 123.441 13.274C123.587 13.2138 123.742 13.1836 123.906 13.1836C124.069 13.1836 124.22 13.2138 124.358 13.274C124.504 13.3343 124.629 13.4204 124.733 13.5324C124.845 13.6357 124.931 13.7606 124.991 13.907C125.051 14.0448 125.081 14.1955 125.081 14.3592ZM122.989 21.9291C122.989 20.689 123.066 19.4531 123.221 18.2216C123.238 18.1011 123.29 17.9977 123.376 17.9116C123.471 17.8169 123.591 17.7695 123.738 17.7695C123.867 17.7695 123.975 17.8212 124.061 17.9245C124.147 18.0192 124.19 18.1312 124.19 18.2604C124.19 18.312 124.177 18.4671 124.151 18.7254C124.134 18.9838 124.108 19.2938 124.074 19.6555C124.048 20.0086 124.022 20.3875 123.996 20.7923C123.979 21.1884 123.97 21.5545 123.97 21.8903C123.97 22.3468 124.013 22.7171 124.1 23.0013C124.194 23.2769 124.311 23.4922 124.448 23.6472C124.595 23.8022 124.745 23.9055 124.9 23.9572C125.064 24.0089 125.219 24.0347 125.366 24.0347C125.607 24.0347 125.856 23.9486 126.115 23.7763C126.373 23.6041 126.636 23.363 126.903 23.0529C127.178 22.7429 127.454 22.3726 127.73 21.942C128.005 21.5028 128.276 21.0162 128.543 20.4823C128.586 20.3961 128.647 20.3316 128.724 20.2885C128.802 20.2368 128.888 20.211 128.983 20.211C129.12 20.211 129.232 20.2627 129.318 20.366C129.413 20.4693 129.461 20.5813 129.461 20.7019C129.461 20.788 129.443 20.8612 129.409 20.9215C129.306 21.1196 129.176 21.3607 129.021 21.6449C128.866 21.9291 128.69 22.2219 128.492 22.5233C128.294 22.8247 128.074 23.1261 127.833 23.4276C127.6 23.7204 127.351 23.9873 127.084 24.2285C126.817 24.461 126.537 24.6505 126.244 24.7969C125.951 24.9433 125.654 25.0165 125.353 25.0165C124.965 25.0165 124.625 24.9347 124.332 24.771C124.039 24.6074 123.79 24.3878 123.583 24.1122C123.385 23.8366 123.234 23.5137 123.131 23.1434C123.036 22.7644 122.989 22.3597 122.989 21.9291ZM124.358 14.3592C124.358 14.2386 124.311 14.1352 124.216 14.0491C124.13 13.9544 124.026 13.907 123.906 13.907C123.785 13.907 123.682 13.9544 123.596 14.0491C123.51 14.1352 123.467 14.2386 123.467 14.3592C123.467 14.4797 123.51 14.5831 123.596 14.6692C123.682 14.7553 123.785 14.7984 123.906 14.7984C124.026 14.7984 124.13 14.7553 124.216 14.6692C124.311 14.5831 124.358 14.4797 124.358 14.3592ZM138.994 11.5689C138.994 11.7067 138.947 11.8186 138.852 11.9047C138.757 11.9822 138.641 12.021 138.503 12.021H131.954V12.1631C131.954 12.6884 131.915 13.2482 131.837 13.8424C131.76 14.4367 131.652 15.0309 131.514 15.6251C131.385 16.2107 131.235 16.7834 131.062 17.3432C130.899 17.903 130.726 18.4197 130.546 18.8934C130.373 19.367 130.201 19.7804 130.029 20.1335C129.857 20.478 129.702 20.7363 129.564 20.9086C129.676 21.3047 129.809 21.675 129.964 22.0195C130.119 22.3554 130.292 22.6525 130.481 22.9108C130.679 23.1606 130.89 23.3587 131.114 23.5051C131.338 23.6515 131.579 23.7247 131.837 23.7247C132.139 23.7247 132.436 23.5998 132.729 23.3501C133.03 23.0917 133.306 22.7903 133.556 22.4458C133.814 22.0927 134.038 21.7396 134.227 21.3865C134.425 21.0248 134.567 20.7363 134.654 20.521C134.74 20.3143 134.89 20.211 135.106 20.211C135.252 20.211 135.368 20.2627 135.454 20.366C135.549 20.4693 135.597 20.5813 135.597 20.7019C135.597 20.7622 135.584 20.8224 135.558 20.8827C135.532 20.943 135.467 21.0808 135.364 21.2961C135.269 21.5114 135.14 21.7611 134.976 22.0453C134.821 22.3295 134.636 22.631 134.421 22.9496C134.214 23.2596 133.978 23.5438 133.711 23.8022C133.452 24.0605 133.172 24.2758 132.871 24.4481C132.569 24.6203 132.251 24.7064 131.915 24.7064C131.321 24.7064 130.787 24.5127 130.313 24.1251C129.839 23.7376 129.435 23.195 129.099 22.4975C128.772 21.7999 128.522 20.9732 128.35 20.0172C128.177 19.0613 128.091 18.0149 128.091 16.8782C128.091 16.594 128.096 16.2624 128.104 15.8835C128.113 15.4959 128.13 15.0912 128.156 14.6692C128.182 14.2386 128.22 13.7994 128.272 13.3515C128.324 12.8951 128.393 12.4516 128.479 12.021H123.841C123.703 12.021 123.587 11.9822 123.492 11.9047C123.398 11.8186 123.35 11.7067 123.35 11.5689C123.35 11.4311 123.398 11.3234 123.492 11.2459C123.587 11.1598 123.703 11.1167 123.841 11.1167H128.698C128.784 10.8067 128.884 10.5225 128.995 10.2642C129.116 10.0058 129.25 9.78188 129.396 9.59242C129.551 9.40296 129.719 9.25655 129.9 9.15321C130.089 9.04125 130.296 8.98528 130.52 8.98528C130.735 8.98528 130.92 9.04125 131.075 9.15321C131.239 9.25655 131.377 9.40296 131.489 9.59242C131.601 9.78188 131.687 10.0058 131.747 10.2642C131.816 10.5225 131.868 10.8067 131.902 11.1167H138.503C138.641 11.1167 138.757 11.1598 138.852 11.2459C138.947 11.3234 138.994 11.4311 138.994 11.5689ZM129.267 19.6168C129.525 19.0484 129.758 18.4369 129.964 17.7824C130.18 17.1193 130.36 16.4519 130.507 15.7801C130.662 15.1084 130.778 14.4496 130.856 13.8037C130.942 13.1578 130.985 12.5636 130.985 12.021H129.461C129.34 12.5549 129.241 13.2181 129.163 14.0104C129.095 14.7941 129.06 15.75 129.06 16.8782C129.06 17.5068 129.077 18.0365 129.112 18.4671C129.146 18.8891 129.198 19.2723 129.267 19.6168ZM130.468 9.95412C130.391 9.95412 130.279 10.0402 130.132 10.2125C129.986 10.3761 129.839 10.6775 129.693 11.1167H130.933C130.89 10.755 130.826 10.4708 130.739 10.2642C130.662 10.0575 130.571 9.95412 130.468 9.95412ZM129.473 20.5469V20.5598V20.5469ZM136.255 23.0788C136.436 23.3285 136.669 23.5309 136.953 23.6859C137.237 23.8323 137.586 23.9055 137.999 23.9055C138.421 23.9055 138.805 23.8065 139.149 23.6084C139.493 23.4017 139.808 23.1348 140.092 22.8075C140.376 22.4802 140.63 22.1142 140.854 21.7095C141.078 21.3047 141.28 20.8999 141.461 20.4952C141.504 20.4005 141.565 20.3316 141.642 20.2885C141.72 20.2368 141.806 20.211 141.901 20.211C142.047 20.211 142.163 20.2627 142.249 20.366C142.344 20.4693 142.391 20.5813 142.391 20.7019C142.391 20.7449 142.387 20.7837 142.378 20.8181C142.37 20.844 142.357 20.8741 142.34 20.9086C141.746 22.2176 141.095 23.2037 140.389 23.8668C139.692 24.5299 138.899 24.8701 138.012 24.8873C137.444 24.8873 136.953 24.7753 136.54 24.5514C136.126 24.3361 135.786 24.0562 135.519 23.7118C135.252 23.3587 135.054 22.9625 134.925 22.5233C134.796 22.0841 134.731 21.6449 134.731 21.2057C134.731 20.7665 134.783 20.3617 134.886 19.9914C134.998 19.6211 135.153 19.2981 135.351 19.0225C135.558 18.747 135.799 18.5317 136.075 18.3766C136.359 18.2216 136.669 18.1441 137.005 18.1441C137.203 18.1441 137.396 18.1872 137.586 18.2733C137.784 18.3508 137.961 18.4671 138.116 18.6221C138.271 18.7685 138.395 18.9493 138.49 19.1646C138.585 19.3799 138.632 19.6254 138.632 19.901C138.632 20.2541 138.572 20.5856 138.451 20.8956C138.331 21.2057 138.163 21.4942 137.948 21.7611C137.741 22.0281 137.491 22.2736 137.198 22.4975C136.906 22.7214 136.591 22.9152 136.255 23.0788ZM135.868 22.2391C136.135 22.1272 136.376 21.9851 136.591 21.8128C136.815 21.6406 137.005 21.4511 137.16 21.2444C137.315 21.0377 137.435 20.8224 137.521 20.5985C137.607 20.366 137.651 20.1335 137.651 19.901C137.651 19.6426 137.586 19.4488 137.457 19.3197C137.328 19.1819 137.177 19.113 137.005 19.113C136.772 19.113 136.574 19.1776 136.41 19.3067C136.247 19.4359 136.113 19.6038 136.01 19.8105C135.907 20.0172 135.829 20.2497 135.777 20.5081C135.734 20.7579 135.713 21.0076 135.713 21.2573C135.713 21.4124 135.726 21.576 135.752 21.7482C135.786 21.9205 135.825 22.0841 135.868 22.2391Z" fill="#00CF63"/>
</svg>
