<svg width="14" height="13" viewBox="0 0 14 13" fill="none" xmlns="http://www.w3.org/2000/svg">
<rect width="11.6364" height="11.6364" transform="translate(1.18188 0.682434)" fill="#FFF0EE"/>
<path d="M11.8182 0.682434H2.18188C1.6296 0.682434 1.18188 1.13015 1.18188 1.68243V11.3188C1.18188 11.8711 1.6296 12.3188 2.18189 12.3188H11.8182C12.3705 12.3188 12.8182 11.8711 12.8182 11.3188V1.68243C12.8182 1.13015 12.3705 0.682434 11.8182 0.682434Z" stroke="#FF331C"/>
<path d="M7.00003 10.0507C8.96068 10.0507 10.5501 8.46126 10.5501 6.50061C10.5501 4.53995 8.96068 2.95053 7.00003 2.95053C5.03937 2.95053 3.44995 4.53995 3.44995 6.50061C3.44995 8.46126 5.03937 10.0507 7.00003 10.0507Z" fill="#FF331C"/>
</svg>
