<svg width="45" height="45" viewBox="0 0 45 45" fill="none" xmlns="http://www.w3.org/2000/svg">
<path d="M3.16655 24.1866L38.1163 17.3931C39.1713 17.188 40.2139 17.4329 41.0437 17.9925C41.8735 18.5522 42.4914 19.4291 42.6972 20.4879L44.8684 31.6572C45.0734 32.7122 44.8286 33.7549 44.2689 34.5846C43.7092 35.4144 42.8324 36.0324 41.7736 36.2382L6.82386 43.0317C5.76881 43.2368 4.72619 42.9919 3.89643 42.4323C3.06668 41.8726 2.44868 40.9957 2.24288 39.9369L0.0717646 28.7676C-0.133259 27.7126 0.111584 26.6699 0.671251 25.8402C1.23092 25.0104 2.10781 24.3924 3.16658 24.1866L3.16655 24.1866ZM38.4718 19.2522L3.52209 26.0457C2.98132 26.1509 2.5311 26.47 2.24149 26.8993C1.95191 27.3287 1.82504 27.8676 1.93087 28.4121L4.10196 39.5814C4.20705 40.1221 4.52623 40.5723 4.95559 40.862C5.38496 41.1516 5.92383 41.2784 6.46826 41.1726L41.418 34.3791C41.9587 34.274 42.4089 33.9548 42.6985 33.5255C42.9882 33.0961 43.115 32.5572 43.0092 32.0127L40.8381 20.8434C40.733 20.3027 40.4139 19.8524 39.9845 19.5629C39.5551 19.2732 39.0163 19.1464 38.4718 19.2522Z" fill="white"/>
<path d="M9.28351 34.2114L9.58571 35.7661C9.63608 36.0252 9.6396 36.237 9.59727 36.4065C9.5549 36.5761 9.47555 36.7071 9.35698 36.8028C9.23847 36.8984 9.08696 36.9628 8.9051 36.9955C8.7242 37.0333 8.55956 37.0304 8.41388 36.9861C8.26811 36.9418 8.14539 36.8501 8.04261 36.7087C7.93986 36.5674 7.86378 36.3697 7.81344 36.1106L6.67115 30.2341C6.59868 29.8475 6.62561 29.5572 6.74836 29.3586C6.87419 29.1621 7.07311 29.0373 7.34879 28.9891C7.6224 28.9306 7.85362 28.9716 8.04392 29.1067C8.23211 29.245 8.36582 29.504 8.44342 29.8896L8.67007 31.0556L10.2869 30.7413L10.0814 29.6841C9.96809 29.1011 9.77604 28.6249 9.50518 28.2553C9.23442 27.8858 8.88946 27.6329 8.46937 27.4914C8.04978 27.3524 7.56013 27.3374 6.99995 27.4436C6.44079 27.555 5.99246 27.7523 5.65545 28.0383C5.31897 28.3269 5.09389 28.6907 4.98121 29.1347C4.86857 29.5788 4.86889 30.0923 4.98219 30.6753L6.08218 36.3342C6.19547 36.9172 6.38708 37.3909 6.6579 37.7604C6.9287 38.1299 7.27416 38.3854 7.69428 38.5269C8.11381 38.6659 8.60349 38.6809 9.16366 38.5748C9.72283 38.4634 10.1712 38.266 10.5081 37.98C10.8446 37.6914 11.0692 37.3251 11.1818 36.881C11.2945 36.4369 11.2947 35.926 11.1814 35.343L10.9004 33.8972L9.28351 34.2114ZM12.7307 37.7523L17.2547 36.8729L16.9525 35.3183L14.1386 35.8652L12.3254 26.5375L10.6153 26.8699L12.7307 37.7523ZM17.9423 28.0432C17.8698 27.6566 17.8967 27.3664 18.0195 27.1677C18.1453 26.9712 18.3442 26.8464 18.6199 26.7982C18.8935 26.7397 19.1247 26.7808 19.315 26.9159C19.5032 27.0541 19.6369 27.3131 19.7145 27.6987L20.8568 33.5752C20.9293 33.9618 20.9024 34.2521 20.7796 34.4507C20.6538 34.6473 20.4549 34.772 20.1792 34.8201C19.9056 34.8788 19.6744 34.8376 19.4841 34.7025C19.2959 34.5643 19.1622 34.3053 19.0846 33.9197L17.9423 28.0432ZM17.3533 34.1433C17.4666 34.7263 17.6634 35.1989 17.942 35.567C18.2205 35.935 18.5712 36.1895 18.999 36.3295C19.4264 36.4669 19.9212 36.481 20.4814 36.3748C21.0405 36.2634 21.4941 36.065 21.8388 35.7775C22.1831 35.4874 22.4129 35.1201 22.5333 34.6745C22.6537 34.2289 22.6591 33.717 22.5458 33.134L21.4458 27.4751C21.3325 26.8921 21.1352 26.4169 20.8566 26.0488C20.5781 25.6808 20.2279 25.4289 19.8001 25.2889C19.3727 25.1515 18.8779 25.1374 18.3177 25.2436C17.7585 25.355 17.305 25.5534 16.9603 25.8409C16.616 26.131 16.3857 26.4957 16.2653 26.9413C16.1449 27.3869 16.14 27.9014 16.2533 28.4844L17.3533 34.1433ZM22.3319 27.3028C22.4206 27.7454 22.5594 28.1272 22.7456 28.4486C22.9343 28.7696 23.1528 29.0498 23.4057 29.2856C23.6561 29.522 23.923 29.7336 24.2063 29.9179C24.4824 30.0995 24.7623 30.2756 25.0456 30.4458C25.3253 30.6119 25.5853 30.7873 25.8255 30.9718C26.0678 31.1532 26.2727 31.3635 26.4443 31.5964C26.6134 31.8297 26.731 32.1027 26.7955 32.4208C26.8454 32.6773 26.8494 32.8917 26.807 33.0612C26.7647 33.2308 26.6853 33.3619 26.5668 33.4575C26.4477 33.5506 26.2967 33.6176 26.1149 33.6502C25.934 33.6881 25.7694 33.6851 25.6237 33.6409C25.4779 33.5966 25.3552 33.5048 25.2525 33.3634C25.1496 33.2221 25.0736 33.0244 25.0233 32.7654L24.8722 31.988L23.2553 32.3023L23.3853 32.9708C23.4986 33.5538 23.6902 34.0274 23.961 34.397C24.2318 34.7665 24.5772 35.0221 24.9973 35.1635C25.4169 35.3025 25.9065 35.3176 26.4667 35.2114C27.0259 35.1 27.4742 34.9026 27.8112 34.6166C28.1477 34.328 28.3723 33.9617 28.485 33.5176C28.5976 33.0735 28.5978 32.5626 28.4845 31.9796C28.3957 31.537 28.257 31.1553 28.0708 30.8338C27.8821 30.5129 27.6636 30.2327 27.4107 29.9968C27.1604 29.7605 26.8934 29.5488 26.6102 29.3646C26.334 29.1829 26.0542 29.0069 25.7708 28.8367C25.4911 28.6705 25.2312 28.4952 24.9909 28.3106C24.7486 28.1292 24.5437 27.9189 24.3721 27.6861C24.203 27.4527 24.0849 27.1772 24.0209 26.8616C23.9484 26.475 23.9676 26.1863 24.0825 25.9891C24.198 25.7946 24.3917 25.6709 24.6674 25.6227C24.9411 25.5641 25.1671 25.6063 25.347 25.7433C25.5274 25.8831 25.6533 26.1436 25.731 26.5292L25.8186 26.98L27.4355 26.6658L27.369 26.3238C27.2556 25.7408 27.0635 25.2645 26.7979 24.894C26.5297 24.5239 26.1874 24.2705 25.7724 24.128C25.358 23.988 24.8736 23.9719 24.3186 24.0771C23.7646 24.1875 23.3215 24.3839 22.9896 24.6689C22.6583 24.9564 22.4358 25.3197 22.3258 25.7633C22.2183 26.2063 22.2186 26.7199 22.3319 27.3028H22.3319ZM29.8685 24.7408L32.8224 24.1666L32.5202 22.612L27.8563 23.5185L29.9716 34.401L34.6355 33.4945L34.3333 31.9398L31.3795 32.514L30.76 29.3269L33.1075 28.8707L32.8053 27.316L30.4578 27.7723L29.8685 24.7408V24.7408ZM35.6927 33.289L38.3978 32.7631C39.2522 32.5943 39.8449 32.2398 40.1807 31.6986C40.5138 31.1579 40.5943 30.4512 40.4245 29.578L39.3548 24.0746C39.185 23.2014 38.8457 22.5763 38.3343 22.1998C37.8202 21.8238 37.138 21.7171 36.2824 21.8807L33.5773 22.4065L35.6927 33.289ZM36.5535 23.4413C36.7344 23.4035 36.8963 23.407 37.0421 23.4512C37.1852 23.496 37.3053 23.5883 37.4055 23.7301C37.5031 23.8725 37.5792 24.0702 37.6296 24.3293L38.7295 29.9882C38.7799 30.2473 38.7834 30.459 38.7463 30.6276C38.7065 30.7966 38.6297 30.9272 38.5138 31.0223C38.3952 31.118 38.2463 31.1819 38.0645 31.2145L37.1006 31.4019L35.5896 23.6287L36.5535 23.4414V23.4413Z" fill="white"/>
<path d="M7.76074 23.5658L19.9754 6.0195L21.5309 7.10091L9.3162 24.6473L7.76074 23.5658ZM24.0782 5.95654L34.5575 18.5872L33.0983 19.7945L22.619 7.16387L24.0782 5.95654Z" fill="white"/>
<path d="M21.9076 1C22.8061 1 23.6197 1.36427 24.2087 1.95321C24.7976 2.54215 25.1619 3.35576 25.1619 4.25428C25.1619 5.15279 24.7976 5.9664 24.2087 6.55534C23.6197 7.14428 22.8061 7.50855 21.9076 7.50855C21.0091 7.50855 20.1955 7.14428 19.6065 6.55534C19.0176 5.9664 18.6533 5.15279 18.6533 4.25428C18.6533 3.35576 19.0176 2.54215 19.6065 1.95321C20.1955 1.36427 21.0091 1 21.9076 1ZM22.868 3.29389C22.6224 3.04822 22.2827 2.89623 21.9076 2.89623C21.5325 2.89623 21.1929 3.04822 20.9472 3.29389C20.7015 3.53954 20.5496 3.87916 20.5496 4.25428C20.5496 4.62939 20.7015 4.96901 20.9472 5.21466C21.1929 5.46036 21.5325 5.61235 21.9076 5.61235C22.2827 5.61235 22.6223 5.46033 22.868 5.21466C23.1137 4.96904 23.2657 4.62939 23.2657 4.25428C23.2657 3.87916 23.1137 3.53954 22.868 3.29389Z" fill="white"/>
</svg>
