<svg width="44" height="45" viewBox="0 0 44 45" fill="none" xmlns="http://www.w3.org/2000/svg">
<g clip-path="url(#clip0_4073_13374)">
<path d="M22 4C11.55 4 3 12.55 3 23C3 33.45 11.55 42 22 42C32.45 42 41 33.45 41 23C41 12.55 32.45 4 22 4ZM33.6375 32.7969C33.0437 33.5094 32.3313 34.1625 31.6187 34.8156C29.0063 36.9531 25.6219 38.2594 22 38.2594C13.6281 38.2 6.8 31.3719 6.8 23C6.8 19.3188 8.10625 15.9344 10.3031 13.3219C10.8969 12.6094 11.55 11.8969 12.3219 11.3031C14.9344 9.10625 18.3781 7.74063 22.0594 7.74063C30.4312 7.74063 37.2594 14.5687 37.2594 22.9406C37.2 26.7406 35.8937 30.125 33.6375 32.7969Z" fill="white"/>
<path d="M22.6551 24.7471C24.4643 24.7471 25.9309 23.2804 25.9309 21.4712C25.9309 19.662 24.4643 18.1954 22.6551 18.1954C20.8459 18.1954 19.3792 19.662 19.3792 21.4712C19.3792 23.2804 20.8459 24.7471 22.6551 24.7471Z" stroke="white" stroke-width="2.18391" stroke-linecap="round" stroke-linejoin="round"/>
<path d="M22.6551 34.5747C27.0229 30.2069 31.3907 26.2958 31.3907 21.4712C31.3907 16.6467 27.4796 12.7356 22.6551 12.7356C17.8305 12.7356 13.9194 16.6467 13.9194 21.4712C13.9194 26.2958 18.2872 30.2069 22.6551 34.5747Z" stroke="white" stroke-width="2.18391" stroke-linecap="round" stroke-linejoin="round"/>
<path d="M33.6376 32.7969C33.0439 33.5094 32.3314 34.1625 31.6189 34.8157L10.2439 13.3813C10.8376 12.6688 11.4908 11.9563 12.2626 11.3625L33.6376 32.7969Z" fill="white"/>
</g>
<defs>
<clipPath id="clip0_4073_13374">
<rect width="38" height="38" fill="white" transform="translate(3 4)"/>
</clipPath>
</defs>
</svg>
