<svg width="14" height="14" viewBox="0 0 14 14" fill="none" xmlns="http://www.w3.org/2000/svg">
<path fill-rule="evenodd" clip-rule="evenodd" d="M7.20474 0.534212C7.07584 0.539695 6.96403 0.624736 6.92435 0.747511L5.47253 5.24716L0.745821 5.23781C0.612078 5.2376 0.493388 5.32371 0.452101 5.45089C0.410818 5.57808 0.456187 5.71741 0.564448 5.79589L4.39448 8.5674L2.92384 13.0624L2.92395 13.0623C2.88234 13.1895 2.9275 13.3288 3.03576 13.4075C3.14391 13.4861 3.29045 13.486 3.39851 13.4072L7.2178 10.62L11.0385 13.4072V13.4071C11.1465 13.4859 11.2931 13.486 11.4013 13.4074C11.5095 13.3287 11.5546 13.1892 11.513 13.0622L10.0424 8.56719L13.8724 5.79567L13.8725 5.79578C13.9809 5.7173 14.0263 5.57797 13.985 5.45068C13.9436 5.32349 13.825 5.23738 13.6912 5.2377L8.96445 5.24705L7.51101 0.747401C7.46844 0.615593 7.34319 0.528404 7.20482 0.534209L7.20474 0.534212Z" fill="#E6E8EB"/>
</svg>
