<svg width="25" height="22" viewBox="0 0 25 22" fill="none" xmlns="http://www.w3.org/2000/svg">
<g clip-path="url(#clip0_2058_9863)">
<path d="M22.2014 5.99864C22.2162 6.21386 22.2162 6.42909 22.2162 6.64629C22.2162 13.2646 17.1779 20.8976 7.96494 20.8976V20.8936C5.24342 20.8976 2.57843 20.118 0.287354 18.6482C0.683085 18.6958 1.0808 18.7196 1.47951 18.7206C3.73488 18.7226 5.92579 17.9658 7.70013 16.5723C5.55683 16.5316 3.67736 15.1342 3.02078 13.094C3.77158 13.2388 4.54519 13.2091 5.2821 13.0078C2.9454 12.5357 1.26429 10.4826 1.26429 8.0983C1.26429 8.07648 1.26429 8.05565 1.26429 8.03482C1.96053 8.42262 2.7401 8.63784 3.53751 8.66165C1.33669 7.1908 0.65829 4.26298 1.98731 1.97388C4.53031 5.10304 8.28232 7.00533 12.3101 7.20666C11.9064 5.46703 12.4578 3.64409 13.7591 2.42119C15.7764 0.524849 18.9492 0.622046 20.8456 2.63839C21.9673 2.41722 23.0424 2.00562 24.0263 1.42244C23.6524 2.58186 22.8698 3.56673 21.8245 4.19256C22.8173 4.07552 23.7873 3.80972 24.7007 3.40407C24.0283 4.41175 23.1813 5.2895 22.2014 5.99864Z" fill="#1D9BF0"/>
</g>
<defs>
<clipPath id="clip0_2058_9863">
<rect width="24.5969" height="20.2329" fill="white" transform="translate(0.195312 0.911804)"/>
</clipPath>
</defs>
</svg>
