<svg width="12" height="13" viewBox="0 0 12 13" fill="none" xmlns="http://www.w3.org/2000/svg">
<rect x="1.05347" y="1.09411" width="10.8118" height="10.8118" rx="5.40589" fill="white"/>
<rect x="1.05347" y="1.09411" width="10.8118" height="10.8118" rx="5.40589" stroke="#F3F6FD" stroke-width="0.269528"/>
<ellipse cx="3.5899" cy="6.50065" rx="1.14776" ry="0.908643" fill="#00CF63"/>
<path fill-rule="evenodd" clip-rule="evenodd" d="M6.07836 2.38626C6.02862 2.39488 5.8658 2.41986 5.71656 2.44181C4.54423 2.61409 3.38472 3.43522 2.84219 4.47733C2.69975 4.75093 2.68857 4.83139 2.76683 5.01889C2.8385 5.19052 3.02027 5.29846 3.23768 5.29846C3.39014 5.29846 3.42434 5.28275 3.54095 5.15913C3.6132 5.08251 3.72934 4.92496 3.79899 4.80902C4.17139 4.18914 4.8606 3.6893 5.62611 3.48389C6.01494 3.37953 6.66771 3.37019 7.06411 3.46325C7.99496 3.68181 8.74462 4.26822 9.15571 5.09931C9.36798 5.52854 9.47659 5.90675 9.40127 5.95454C9.37456 5.97149 7.87303 5.98558 6.06454 5.9859C2.8186 5.98645 2.77486 5.98739 2.65698 6.06031C2.3268 6.26454 2.38939 6.78451 2.76114 6.92547C2.90355 6.9795 10.013 6.9795 10.1554 6.92547C10.4424 6.81666 10.517 6.60766 10.4574 6.07972C10.2502 4.2444 8.97195 2.82425 7.19996 2.46067C6.92148 2.4035 6.2398 2.35827 6.07836 2.38626ZM9.53361 7.59861C9.3687 7.65586 9.36147 7.66433 9.10657 8.10084C8.67798 8.83484 7.96106 9.3559 7.10456 9.55592C6.77477 9.63294 6.10221 9.63319 5.77615 9.55647C5.26036 9.43505 4.70137 9.14002 4.3176 8.78665C4.12045 8.60513 3.82319 8.20498 3.69146 7.9438C3.57452 7.71195 3.45693 7.6165 3.25479 7.58938C2.98452 7.55309 2.71357 7.79925 2.71357 8.08107C2.71357 8.14172 2.77699 8.31397 2.85449 8.46388C3.20132 9.13466 3.73777 9.68773 4.43244 10.0907C6.4109 11.2384 9.04235 10.4591 10.0781 8.41887C10.1874 8.20338 10.2084 8.12868 10.1926 8.01082C10.1479 7.67715 9.84791 7.48951 9.53361 7.59861Z" fill="#00CF63"/>
</svg>
