<svg width="26" height="26" viewBox="0 0 26 26" fill="none" xmlns="http://www.w3.org/2000/svg">
<path d="M8.59122 22.0838C8.56073 22.0838 8.52007 22.1041 8.48958 22.1041C6.51791 21.1285 4.91211 19.5125 3.92627 17.5408C3.92627 17.5103 3.9466 17.4697 3.9466 17.4392C5.18652 17.8051 6.46709 18.0795 7.7375 18.2929C7.96109 19.5735 8.22534 20.8439 8.59122 22.0838Z" fill="#1A264E"/>
<path d="M22.0981 17.551C21.092 19.5735 19.415 21.2098 17.3722 22.1956C17.7584 20.9049 18.0836 19.604 18.2971 18.2929C19.5776 18.0795 20.8379 17.8051 22.0778 17.4392C22.0676 17.4798 22.0981 17.5205 22.0981 17.551Z" fill="#1A264E"/>
<path d="M22.1794 8.66827C20.8989 8.28207 19.6081 7.96701 18.2971 7.74341C18.0836 6.43235 17.7686 5.13145 17.3722 3.86104C19.476 4.8672 21.1733 6.56447 22.1794 8.66827Z" fill="#1A264E"/>
<path d="M8.5911 3.97286C8.22522 5.21278 7.96098 6.47303 7.74755 7.7536C6.43649 7.95686 5.13559 8.28209 3.84485 8.66829C4.83069 6.62547 6.46698 4.94853 8.48947 3.94237C8.51996 3.94237 8.56061 3.97286 8.5911 3.97286Z" fill="#1A264E"/>
<path d="M16.5591 7.53001C14.2012 7.26577 11.823 7.26577 9.46509 7.53001C9.71917 6.13764 10.0444 4.74527 10.5017 3.40372C10.5221 3.32241 10.5119 3.26143 10.5221 3.18013C11.325 2.98703 12.1482 2.86507 13.0121 2.86507C13.8658 2.86507 14.6992 2.98703 15.4919 3.18013C15.5021 3.26143 15.5021 3.32241 15.5224 3.40372C15.9798 4.75544 16.305 6.13764 16.5591 7.53001Z" fill="#1A264E"/>
<path d="M7.51382 16.5753C6.11129 16.3213 4.72908 15.996 3.38753 15.5387C3.30622 15.5184 3.24524 15.5285 3.16394 15.5184C2.97084 14.7155 2.84888 13.8922 2.84888 13.0284C2.84888 12.1746 2.97084 11.3413 3.16394 10.5485C3.24524 10.5384 3.30622 10.5384 3.38753 10.518C4.73925 10.0708 6.11129 9.73545 7.51382 9.48137C7.25974 11.8393 7.25974 14.2175 7.51382 16.5753Z" fill="#1A264E"/>
<path d="M23.1756 13.0284C23.1756 13.8922 23.0536 14.7155 22.8605 15.5184C22.7792 15.5285 22.7182 15.5184 22.6369 15.5387C21.2852 15.9859 19.903 16.3213 18.5106 16.5753C18.7749 14.2175 18.7749 11.8393 18.5106 9.48137C19.903 9.73545 21.2954 10.0607 22.6369 10.518C22.7182 10.5384 22.7792 10.5485 22.8605 10.5485C23.0536 11.3514 23.1756 12.1746 23.1756 13.0284Z" fill="#1A264E"/>
<path d="M16.5591 18.5267C16.305 19.9292 15.9798 21.3114 15.5224 22.653C15.5021 22.7343 15.5021 22.7953 15.4919 22.8766C14.6992 23.0697 13.8658 23.1916 13.0121 23.1916C12.1482 23.1916 11.325 23.0697 10.5221 22.8766C10.5119 22.7953 10.5221 22.7343 10.5017 22.653C10.0546 21.3013 9.71917 19.9292 9.46509 18.5267C10.644 18.6588 11.823 18.7503 13.0121 18.7503C14.2012 18.7503 15.3903 18.6588 16.5591 18.5267Z" fill="#1A264E"/>
<path d="M16.837 16.8531C14.2951 17.1738 11.7294 17.1738 9.18743 16.8531C8.86672 14.3112 8.86672 11.7455 9.18743 9.20356C11.7294 8.88285 14.2951 8.88285 16.837 9.20356C17.1577 11.7455 17.1577 14.3112 16.837 16.8531Z" fill="#1A264E"/>
</svg>
